<?xml version="1.0" encoding="utf-8"?>
<!-- Generator: Adobe Illustrator 24.1.2, SVG Export Plug-In . SVG Version: 6.00 Build 0)  -->
<svg version="1.1" id="Layer_1" xmlns="http://www.w3.org/2000/svg" xmlns:xlink="http://www.w3.org/1999/xlink" x="0px" y="0px"
	 viewBox="0 0 24 24" style="enable-background:new 0 0 24 24;" xml:space="preserve">
<style type="text/css">
	.st0{opacity:0.9;}
	.st1{fill:none;stroke:#2D3958;stroke-linecap:round;stroke-linejoin:round;}
	.st2{opacity:0.9;fill:none;stroke:#2D3958;stroke-linecap:round;}
	.st3{fill:none;stroke:#2D3958;stroke-linecap:round;}
</style>
<g class="st0">
	<path class="st1" d="M13.98,7.5h7.43"/>
	<path class="st1" d="M4.5,7.5H12"/>
	<path class="st1" d="M12,4v3.5"/>
	<path class="st1" d="M17.09,3.5H6.91l0,0c-0.27,0-0.52,0.11-0.71,0.29L2.79,7.21l0,0C2.61,7.39,2.5,7.65,2.5,7.91V19.5l0,0
		c0,0.55,0.45,1,1,1h17l0,0c0.55,0,1-0.45,1-1V7.91v0c0-0.27-0.11-0.52-0.29-0.71l-3.41-3.41l0,0C17.61,3.61,17.35,3.5,17.09,3.5z"
		/>
</g>
<path class="st2" d="M13.5,11.5v2"/>
<g class="st0">
	<path class="st3" d="M10.5,11.5v2"/>
	<path class="st3" d="M9.48,16.07L9.48,16.07c0.42,1.38,1.88,2.16,3.26,1.74c0.83-0.25,1.49-0.91,1.74-1.74"/>
</g>
</svg>
