<?xml version="1.0" encoding="utf-8"?>
<!-- Generator: Adobe Illustrator 24.1.2, SVG Export Plug-In . SVG Version: 6.00 Build 0)  -->
<svg version="1.1" id="Layer_1" xmlns="http://www.w3.org/2000/svg" xmlns:xlink="http://www.w3.org/1999/xlink" x="0px" y="0px"
	 viewBox="0 0 24 24" style="enable-background:new 0 0 24 24;" xml:space="preserve">
<style type="text/css">
	.st0{opacity:0.9;}
	.st1{fill:none;stroke:#2D3958;stroke-linecap:round;stroke-linejoin:round;}
</style>
<g class="st0">
	<path class="st1" d="M8,10.5h1l1,4h4l0.5-3h-5"/>
	<path class="st1" d="M10.68,16.23c0.1,0.1,0.1,0.26,0,0.35s-0.26,0.1-0.35,0c-0.1-0.1-0.1-0.26,0-0.35S10.58,16.13,10.68,16.23"/>
	<path class="st1" d="M13.68,16.23c0.1,0.1,0.1,0.26,0,0.35s-0.26,0.1-0.35,0c-0.1-0.1-0.1-0.26,0-0.35S13.58,16.13,13.68,16.23"/>
	<path class="st1" d="M4.5,20.5c-1.1,0-2-0.9-2-2v-13c0-1.1,0.9-2,2-2h15c1.1,0,2,0.9,2,2v13c0,1.1-0.9,2-2,2H4.5z"/>
	<path class="st1" d="M5.18,5.82c0.1,0.1,0.1,0.26,0,0.35s-0.26,0.1-0.35,0s-0.1-0.26,0-0.35S5.08,5.73,5.18,5.82"/>
	<path class="st1" d="M7.68,5.82c0.1,0.1,0.1,0.26,0,0.35s-0.26,0.1-0.35,0s-0.1-0.26,0-0.35S7.58,5.73,7.68,5.82"/>
	<path class="st1" d="M10.18,5.82c0.1,0.1,0.1,0.26,0,0.35s-0.26,0.1-0.35,0c-0.1-0.1-0.1-0.26,0-0.35S10.08,5.73,10.18,5.82"/>
</g>
</svg>
