<svg xmlns="http://www.w3.org/2000/svg" viewBox="0 0 64 64"><title>gear</title><g class="nc-icon-wrapper" stroke-linecap="round" stroke-linejoin="round" stroke-width="2" fill="#627597" stroke="#627597"><circle data-color="color-2" cx="32" cy="32" r="9" fill="none" stroke-miterlimit="10"/><path d="M62 32a4.445 4.445 0 0 0-4.077-4.43l-4.65-.389a21.681 21.681 0 0 0-2.826-6.806L53.47 16.8a4.445 4.445 0 0 0-.249-6.015 4.446 4.446 0 0 0-6.015-.249l-3.573 3.023a21.643 21.643 0 0 0-6.814-2.834l-.389-4.65A4.445 4.445 0 0 0 32 2a4.445 4.445 0 0 0-4.43 4.077l-.389 4.65a21.681 21.681 0 0 0-6.806 2.826L16.8 10.536a4.446 4.446 0 0 0-6.015.25 4.446 4.446 0 0 0-.249 6.015l3.023 3.573a21.652 21.652 0 0 0-2.834 6.807l-4.655.389A4.445 4.445 0 0 0 2 32a4.445 4.445 0 0 0 4.077 4.43l4.657.389a21.657 21.657 0 0 0 2.826 6.806L10.536 47.2a4.446 4.446 0 0 0 .25 6.015 4.446 4.446 0 0 0 6.015.249l3.573-3.023a21.652 21.652 0 0 0 6.807 2.834l.389 4.657A4.445 4.445 0 0 0 32 62a4.445 4.445 0 0 0 4.43-4.077l.389-4.657a21.657 21.657 0 0 0 6.806-2.826l3.575 3.024a4.446 4.446 0 0 0 6.015-.25 4.446 4.446 0 0 0 .249-6.015l-3.023-3.573a21.652 21.652 0 0 0 2.834-6.807l4.657-.389A4.445 4.445 0 0 0 62 32z" fill="none" stroke="#627597" stroke-miterlimit="10"/></g></svg>