<?xml version="1.0" encoding="utf-8"?>
<!-- Generator: Adobe Illustrator 24.1.2, SVG Export Plug-In . SVG Version: 6.00 Build 0)  -->
<svg version="1.1" id="Layer_1" xmlns="http://www.w3.org/2000/svg" xmlns:xlink="http://www.w3.org/1999/xlink" x="0px" y="0px"
	 viewBox="0 0 120 120" style="enable-background:new 0 0 120 120;" xml:space="preserve">
<style type="text/css">
	.st0{fill:none;stroke:#000000;stroke-linecap:round;stroke-linejoin:round;}
</style>
<g>
	<path class="st0" d="M35.85,50.95h6.04l6.04,24.15h24.15l3.02-18.11H44.91"/>
	<path class="st0" d="M52.01,85.51c0.59,0.59,0.59,1.54,0,2.13c-0.59,0.59-1.54,0.59-2.13,0c-0.59-0.59-0.59-1.54,0-2.13
		C50.47,84.92,51.42,84.92,52.01,85.51"/>
	<path class="st0" d="M70.12,85.51c0.59,0.59,0.59,1.54,0,2.13c-0.59,0.59-1.54,0.59-2.13,0c-0.59-0.59-0.59-1.54,0-2.13
		C68.58,84.92,69.53,84.92,70.12,85.51"/>
	<path class="st0" d="M14.73,111.31c-6.67,0-12.07-5.41-12.07-12.07V20.76c0-6.67,5.41-12.07,12.07-12.07h90.55
		c6.67,0,12.07,5.41,12.07,12.07v78.47c0,6.67-5.41,12.07-12.07,12.07H14.73z"/>
	<path class="st0" d="M18.81,22.71c0.59,0.59,0.59,1.54,0,2.13c-0.59,0.59-1.54,0.59-2.13,0c-0.59-0.59-0.59-1.54,0-2.13
		S18.22,22.12,18.81,22.71"/>
	<path class="st0" d="M33.9,22.71c0.59,0.59,0.59,1.54,0,2.13c-0.59,0.59-1.54,0.59-2.13,0c-0.59-0.59-0.59-1.54,0-2.13
		S33.31,22.12,33.9,22.71"/>
	<path class="st0" d="M48.99,22.71c0.59,0.59,0.59,1.54,0,2.13c-0.59,0.59-1.54,0.59-2.13,0c-0.59-0.59-0.59-1.54,0-2.13
		C47.45,22.12,48.41,22.12,48.99,22.71"/>
</g>
</svg>
