<?xml version="1.0" encoding="utf-8"?>
<!-- Generator: Adobe Illustrator 24.1.2, SVG Export Plug-In . SVG Version: 6.00 Build 0)  -->
<svg version="1.1" id="Layer_1" xmlns="http://www.w3.org/2000/svg" xmlns:xlink="http://www.w3.org/1999/xlink" x="0px" y="0px"
	 viewBox="0 0 24 24" style="enable-background:new 0 0 24 24;" xml:space="preserve">
<style type="text/css">
	.st0{opacity:0.9;}
	.st1{fill:none;stroke:#2D3958;stroke-linecap:round;stroke-linejoin:round;}
</style>
<g class="st0">
	<path class="st1" d="M1.5,11.5l3.31-4.32l0,0c0.34-0.44,0.78-0.8,1.28-1.05"/>
	<path class="st1" d="M7.5,11.77V6.5v0c0-1.1,0.9-2,2-2h11l0,0c1.1,0,2,0.9,2,2v7l0,0c0,1.1-0.9,2-2,2h-8.45"/>
	<path class="st1" d="M1.5,19.5h4.31l0,0c1.68,0,3.25-0.84,4.18-2.24l0,0c0.34-0.5,0.77-0.94,1.28-1.26l2.04-1.31l0,0
		c0.66-0.66,0.66-1.73,0-2.38c-0.49-0.49-1.22-0.63-1.86-0.36L5.5,14.5"/>
	<path class="st1" d="M12.95,10.65L11.4,9.14l0,0c-0.09-0.09-0.09-0.24,0-0.33c0.04-0.04,0.08-0.06,0.13-0.07l2.13-0.31l0,0
		c0.08-0.01,0.14-0.06,0.17-0.13l0.95-1.93l0,0c0.06-0.11,0.2-0.16,0.31-0.11c0.05,0.02,0.08,0.06,0.11,0.11l0.95,1.93l0,0
		c0.03,0.07,0.1,0.12,0.17,0.13l2.13,0.31l0,0c0.13,0.02,0.21,0.14,0.2,0.26c-0.01,0.05-0.03,0.1-0.07,0.13l-1.54,1.5l0,0
		c-0.05,0.05-0.08,0.13-0.07,0.2l0.36,2.12l0,0c0.02,0.13-0.06,0.25-0.19,0.27c-0.05,0.01-0.1,0-0.15-0.02l-1.91-1"/>
</g>
</svg>
