<?xml version="1.0" encoding="UTF-8"?><svg version="1.1" viewBox="0 0 24 24" xmlns="http://www.w3.org/2000/svg" xmlns:xlink="http://www.w3.org/1999/xlink"><!--Generated by IJSVG (https://github.com/iconjar/IJSVG)--><g stroke-linecap="round" stroke-width="1" stroke="#000" fill="none" stroke-linejoin="round"><path d="M8,10.5h1l1,4h4l0.5,-3h-5"></path><path d="M10.6768,16.2262c0.0976311,0.0976311 0.0976311,0.255922 0,0.353553c-0.0976311,0.0976311 -0.255922,0.0976311 -0.353553,0c-0.0976311,-0.0976311 -0.0976311,-0.255922 0,-0.353553c0.0976311,-0.0976311 0.255922,-0.0976311 0.353553,0"></path><path d="M13.6768,16.2262c0.0976311,0.0976311 0.0976311,0.255922 0,0.353553c-0.0976311,0.0976311 -0.255922,0.0976311 -0.353553,0c-0.0976311,-0.0976311 -0.0976311,-0.255922 0,-0.353553c0.0976311,-0.0976311 0.255922,-0.0976311 0.353553,0"></path><path d="M4.5,20.5c-1.10456,0 -2,-0.89544 -2,-2v-13c0,-1.10456 0.89544,-2 2,-2h15c1.10456,0 2,0.89544 2,2v13c0,1.10456 -0.89544,2 -2,2Z"></path><path d="M5.17678,5.82322c0.0976311,0.0976311 0.0976311,0.255922 0,0.353553c-0.0976311,0.0976311 -0.255922,0.0976311 -0.353553,0c-0.0976311,-0.0976311 -0.0976311,-0.255922 0,-0.353553c0.0976311,-0.0976311 0.255922,-0.0976311 0.353553,0"></path><path d="M7.67678,5.82322c0.0976311,0.0976311 0.0976311,0.255922 0,0.353553c-0.0976311,0.0976311 -0.255922,0.0976311 -0.353553,0c-0.0976311,-0.0976311 -0.0976311,-0.255922 0,-0.353553c0.0976311,-0.0976311 0.255922,-0.0976311 0.353553,0"></path><path d="M10.1768,5.82322c0.0976311,0.0976311 0.0976311,0.255922 0,0.353553c-0.0976311,0.0976311 -0.255922,0.0976311 -0.353553,0c-0.0976311,-0.0976311 -0.0976311,-0.255922 0,-0.353553c0.0976311,-0.0976311 0.255922,-0.0976311 0.353553,0"></path></g></svg>