<?xml version="1.0" encoding="utf-8"?>
<!-- Generator: Adobe Illustrator 24.1.2, SVG Export Plug-In . SVG Version: 6.00 Build 0)  -->
<svg version="1.1" id="Layer_1" xmlns="http://www.w3.org/2000/svg" xmlns:xlink="http://www.w3.org/1999/xlink" x="0px" y="0px"
	 viewBox="0 0 24 24" style="enable-background:new 0 0 24 24;" xml:space="preserve">
<style type="text/css">
	.st0{fill:none;stroke:#2D3958;stroke-linecap:round;stroke-linejoin:round;}
</style>
<g>
	<path class="st0" d="M13.11,19.96l0.4-6.98l5.22,4.65l-3.16,0.33C15.58,17.97,13.11,19.96,13.11,19.96z"/>
	<path class="st0" d="M15.58,17.97l1.3,3.13"/>
	<path class="st0" d="M12.68,10.97L11.9,9.1"/>
	<path class="st0" d="M11.52,12.24l-1.93-0.61"/>
	<path class="st0" d="M11.75,13.94l-1.72,1.09"/>
	<path class="st0" d="M14.4,11.05l0.93-1.8"/>
	<path class="st0" d="M15.44,12.41l1.98-0.44"/>
	<path class="st0" d="M10.38,19.5H4.5l0,0c-1.1,0-2-0.9-2-2l0,0v-12v0c0-1.1,0.9-2,2-2h15l0,0c1.1,0,2,0.9,2,2v12l0,0
		c0,1.1-0.9,2-2,2"/>
	<path class="st0" d="M5.18,5.82c0.1,0.1,0.1,0.26,0,0.35s-0.26,0.1-0.35,0s-0.1-0.26,0-0.35S5.08,5.73,5.18,5.82"/>
	<path class="st0" d="M7.68,5.82c0.1,0.1,0.1,0.26,0,0.35s-0.26,0.1-0.35,0s-0.1-0.26,0-0.35S7.58,5.73,7.68,5.82"/>
	<path class="st0" d="M10.18,5.82c0.1,0.1,0.1,0.26,0,0.35s-0.26,0.1-0.35,0c-0.1-0.1-0.1-0.26,0-0.35S10.08,5.73,10.18,5.82"/>
</g>
</svg>
