<?xml version="1.0" encoding="utf-8"?>
<!-- Generator: Adobe Illustrator 24.1.2, SVG Export Plug-In . SVG Version: 6.00 Build 0)  -->
<svg version="1.1" id="Layer_1" xmlns="http://www.w3.org/2000/svg" xmlns:xlink="http://www.w3.org/1999/xlink" x="0px" y="0px"
	 viewBox="0 0 24 24" style="enable-background:new 0 0 24 24;" xml:space="preserve">
<style type="text/css">
	.st0{opacity:0.9;}
	.st1{fill:none;stroke:#2D3958;stroke-linecap:round;stroke-linejoin:round;}
</style>
<g class="st0">
	<path class="st1" d="M4.36,3.45l0.82,1.66l0,0c0.03,0.06,0.08,0.1,0.15,0.11l1.84,0.27l0,0c0.11,0.01,0.18,0.11,0.16,0.22
		C7.32,5.75,7.3,5.79,7.27,5.82l-1.33,1.3l0,0C5.89,7.17,5.87,7.23,5.88,7.29L6.2,9.12l0,0c0.02,0.11-0.06,0.2-0.16,0.22
		C6,9.35,5.95,9.34,5.92,9.32L4.27,8.46l0,0c-0.06-0.03-0.12-0.03-0.18,0L2.45,9.32l0,0c-0.1,0.05-0.21,0.01-0.26-0.08
		C2.17,9.2,2.16,9.16,2.17,9.12l0.31-1.83l0,0c0.01-0.06-0.01-0.13-0.06-0.17L1.1,5.82l0,0c-0.08-0.07-0.08-0.2,0-0.27
		C1.12,5.52,1.16,5.5,1.21,5.49l1.84-0.27l0,0c0.06-0.01,0.12-0.05,0.14-0.11l0.82-1.66l0,0c0.05-0.1,0.16-0.13,0.26-0.09
		C4.31,3.39,4.34,3.42,4.36,3.45z"/>
	<path class="st1" d="M10.27,9.32L10.27,9.32c-0.09,0.05-0.21,0.01-0.26-0.08C9.99,9.21,9.98,9.16,9.99,9.12l0.31-1.83l0,0
		c0.01-0.06-0.01-0.13-0.06-0.17l-1.33-1.3l0,0c-0.08-0.08-0.08-0.2,0-0.27C8.94,5.51,8.98,5.5,9.02,5.49l1.84-0.27l0,0
		c0.06-0.01,0.12-0.05,0.15-0.11l0.82-1.66l0,0c0.05-0.1,0.16-0.13,0.26-0.09c0.04,0.02,0.07,0.05,0.09,0.09L13,5.12l0,0
		c0.03,0.06,0.08,0.1,0.15,0.11l1.84,0.27l0,0c0.11,0.02,0.18,0.12,0.16,0.22c-0.01,0.04-0.03,0.08-0.06,0.11"/>
	<path class="st1" d="M19.99,3.45l0.82,1.66l0,0c0.03,0.06,0.08,0.1,0.15,0.11l1.84,0.27l0,0c0.11,0.01,0.18,0.11,0.16,0.22
		c-0.01,0.04-0.03,0.08-0.06,0.11l-1.33,1.3l0,0c-0.05,0.04-0.07,0.11-0.06,0.17l0.31,1.83l0,0c0.02,0.11-0.06,0.2-0.16,0.22
		c-0.04,0.01-0.08,0-0.12-0.02L19.9,8.46l0,0c-0.06-0.03-0.12-0.03-0.18,0l-1.64,0.86l0,0c-0.1,0.05-0.21,0.01-0.26-0.08
		C17.8,9.2,17.8,9.16,17.8,9.12l0.31-1.83l0,0c0.01-0.06-0.01-0.13-0.06-0.17l-1.33-1.3l0,0c-0.08-0.08-0.08-0.2,0-0.27
		c0.03-0.03,0.07-0.05,0.11-0.06l1.84-0.27l0,0c0.06-0.01,0.12-0.05,0.15-0.11l0.82-1.66l0,0c0.05-0.1,0.16-0.14,0.26-0.09
		C19.94,3.38,19.97,3.42,19.99,3.45z"/>
	<path class="st1" d="M18.92,20.08c1.6-1.98,1.57-5.18,0.65-6.06l0,0c-0.99-0.93-2.21-1.57-3.54-1.86l0,0
		c-0.44-0.1-0.89-0.15-1.34-0.15V8.6l0,0c0-0.81-0.66-1.46-1.46-1.46s-1.46,0.66-1.46,1.46v7.61v0c0,0.42-0.34,0.76-0.75,0.76
		c-0.11,0-0.21-0.02-0.31-0.06c-1.31-0.58-1.91-1.02-2.69-0.5l0,0c-0.67,0.46-0.83,1.38-0.37,2.04c0.09,0.12,0.19,0.23,0.31,0.33h0
		c1.42,1,2.96,1.8,4.6,2.37"/>
</g>
</svg>
