<?xml version="1.0" encoding="utf-8"?>
<!-- Generator: Adobe Illustrator 24.1.2, SVG Export Plug-In . SVG Version: 6.00 Build 0)  -->
<svg version="1.1" id="Layer_1" xmlns="http://www.w3.org/2000/svg" xmlns:xlink="http://www.w3.org/1999/xlink" x="0px" y="0px"
	 viewBox="0 0 24 24" style="enable-background:new 0 0 24 24;" xml:space="preserve">
<style type="text/css">
	.st0{opacity:0.9;}
	.st1{fill:none;stroke:#2D3958;stroke-linecap:round;stroke-linejoin:round;}
	.st2{fill:none;stroke:#2D3958;stroke-width:1;stroke-linecap:round;stroke-linejoin:round;stroke-miterlimit:4;}
</style>
<g class="st0">
	<path class="st1" d="M1.9,2.79l2.97,0.96l0,0C5.93,4.09,6.8,4.89,7.22,5.92l3.49,8.42"/>
	<path class="st1" d="M14.14,19.47l7.11-2.95"/>
	<path class="st1" d="M11.31,16.52c1.42,1.42,1.42,3.71,0,5.13c-1.42,1.42-3.71,1.42-5.13,0s-1.42-3.71,0-5.13S9.9,15.1,11.31,16.52
		"/>
</g>
<g transform="matrix(1,0,0,1,-3.233,7.348)" class="st0">
	<path class="st2" d="M14.79,2.72l7.82-3.24l2.78,6.7l-7.82,3.24L14.79,2.72z"/>
</g>
<g transform="matrix(1,0,0,1,-1.207,5.711)" class="st0">
	<path class="st2" d="M10.45-1.23L17.15-4l2.31,5.58l-6.7,2.78L10.45-1.23z"/>
</g>
<g class="st0">
	<path class="st1" d="M16.39,10.68l-0.92-2.23"/>
	<path class="st1" d="M13.52,5.33L12.6,3.1"/>
</g>
</svg>
