<svg xmlns="http://www.w3.org/2000/svg" viewBox="0 0 32 32"><title>world pin</title><g class="nc-icon-wrapper" stroke-linecap="round" stroke-linejoin="round" stroke-width="1" transform="translate(0.5 0.5)" fill="#2d3958" stroke="#2d3958"><path data-cap="butt" fill="none" stroke="#2d3958" stroke-miterlimit="10" d="M8.572,7.33 c0.82,0.606,1.56,1.17,2.337,2.112c0.654,0.793,1.437,3.625,0.364,5.013C10.059,16.024,6.545,16.554,6.545,18 c0,1.088,1.541,2.33,2.364,3.545c1.238,1.827,0.675,3.597,0,4.727c-0.35,0.586-0.945,1.055-1.565,1.427"/> <path data-cap="butt" fill="none" stroke="#2d3958" stroke-miterlimit="10" d="M28.652,15 C28.88,15.963,29,16.967,29,18c0,7.18-5.82,13-13,13S3,25.18,3,18S8.82,5,16,5c0.09,0,0.181,0.001,0.271,0.003"/> <circle data-color="color-2" data-stroke="none" cx="22" cy="7" r="1" stroke-linejoin="miter" stroke-linecap="square" stroke="none"/> <path data-cap="butt" fill="none" stroke="#2d3958" stroke-miterlimit="10" d="M15.835,30.999 c-2.593-2.096-2.733-8.991,1.349-10.591c2.166-0.849,2.764,3.419,7.116,2.703c1.153-0.19,2.309,0.514,2.393,2.283"/> <path data-color="color-2" fill="none" stroke-miterlimit="10" d="M28,6.844 C28,10.451,22,16,22,16s-6-5.549-6-9.156C16,3.146,19.101,1,22,1S28,3.146,28,6.844z"/></g></svg>