<svg xmlns="http://www.w3.org/2000/svg" width="624" height="390" viewBox="0 0 624 390">
  <g id="dashboard" transform="translate(-106)">
    <g id="Group_14" data-name="Group 14">
      <rect id="Rectangle_34" data-name="Rectangle 34" width="624" height="390" rx="24" transform="translate(106)" fill="#fff"/>
    </g>
    <rect id="Rectangle_35" data-name="Rectangle 35" width="132" height="240" rx="8" transform="translate(130 126)" fill="#f8faff"/>
    
    <rect id="Rectangle_36" data-name="Rectangle 36" width="132" height="50" transform="translate(130 76)" fill="#fff"/>
    <rect id="Rectangle_37" data-name="Rectangle 37" width="420" height="206" rx="8" transform="translate(286 160)" fill="#f8faff"/>
    <rect id="Rectangle_38" data-name="Rectangle 38" width="420" height="112" rx="8" transform="translate(286 24)" fill="#f8faff"/>
    <g id="Group_15" data-name="Group 15">
      <rect id="Rectangle_39" data-name="Rectangle 39" width="112" height="64" rx="8" transform="translate(310 48)" fill="#fff"/>
    </g>
    <g id="Group_16" data-name="Group 16">
      <rect id="Rectangle_40" data-name="Rectangle 40" width="112" height="64" rx="8" transform="translate(440 48)" fill="#fff"/>
    </g>
    <g id="Group_17" data-name="Group 17">
      <rect id="Rectangle_41" data-name="Rectangle 41" width="112" height="64" rx="8" transform="translate(570 48)" fill="#fff"/>
    </g>
    <circle id="Ellipse_4" data-name="Ellipse 4" cx="16" cy="16" r="16" transform="translate(324 64)" fill="#f2ccd7"/>
    <circle id="Ellipse_5" data-name="Ellipse 5" cx="16" cy="16" r="16" transform="translate(454 64)" fill="#f2ccd7"/>
    <circle id="Ellipse_6" data-name="Ellipse 6" cx="16" cy="16" r="16" transform="translate(584 64)" fill="#f2d6e1"/>
    <rect id="Rectangle_42" data-name="Rectangle 42" width="44" height="8" rx="4" transform="translate(366 69)" fill="#e6eaf5"/>
    <rect id="Rectangle_43" data-name="Rectangle 43" width="44" height="8" rx="4" transform="translate(496 69)" fill="#e6eaf5"/>
    <g id="Group_18" data-name="Group 18">
      <rect id="Rectangle_44" data-name="Rectangle 44" width="174" height="158" rx="8" transform="translate(508 184)" fill="#fff"/>
    </g>
    <g id="Group_19" data-name="Group 19" opacity="0.2">
      <path id="Path_70" data-name="Path 70" d="M611.314,280.686a16,16,0,1,1-22.628,0A16,16,0,0,1,611.314,280.686Z" fill="#fff"/>
    </g>
    <path id="Path_71" data-name="Path 71" d="M625.456,249.544a36,36,0,1,1-50.912,0A36,36,0,0,1,625.456,249.544Z" fill="#f2ccd7"/>
    <path id="Path_72" data-name="Path 72" d="M566.059,308.941a48.019,48.019,0,0,0,58.435,7.352c5.7-3.385,5.648-11.151.962-15.837l-59.4-59.4a48,48,0,0,0,0,67.885Z" fill="#f2ccd7"/>
    <path id="Path_73" data-name="Path 73" d="M562.523,237.523a53,53,0,0,0-2.723,72.02,3.782,3.782,0,0,0,5.552.1l63.639-63.639c4.687-4.687,4.736-12.434-.88-15.953a53.02,53.02,0,0,0-65.588,7.467Z" fill="#f07c9f"/>
    <path id="Path_74" data-name="Path 74" d="M614.142,260.858a20,20,0,1,1-28.284,0,20,20,0,0,1,28.284,0Z" fill="#fff"/>
    <rect id="Rectangle_45" data-name="Rectangle 45" width="16" height="8" rx="4" transform="translate(592 271)" fill="#e6eaf5"/>
    <rect id="Rectangle_46" data-name="Rectangle 46" width="57" height="8" rx="4" transform="translate(520 196)" fill="#e6eaf5"/>
    <rect id="Rectangle_47" data-name="Rectangle 47" width="21" height="8" rx="4" transform="translate(649 196)" fill="#e6eaf5" opacity="0.5"/>
    <rect id="Rectangle_48" data-name="Rectangle 48" width="44" height="8" rx="4" transform="translate(626 69)" fill="#e6eaf5"/>
    <rect id="Rectangle_49" data-name="Rectangle 49" width="26" height="8" rx="4" transform="translate(366 83)" fill="#e6eaf5" opacity="0.5"/>
    <rect id="Rectangle_50" data-name="Rectangle 50" width="26" height="8" rx="4" transform="translate(496 83)" fill="#e6eaf5" opacity="0.5"/>
    <rect id="Rectangle_51" data-name="Rectangle 51" width="26" height="8" rx="4" transform="translate(626 83)" fill="#e6eaf5" opacity="0.5"/>
    <g id="Group_20" data-name="Group 20">
      <rect id="Rectangle_52" data-name="Rectangle 52" width="174" height="158" rx="8" transform="translate(310 184)" fill="#fff"/>
    </g>
    <rect id="Rectangle_53" data-name="Rectangle 53" width="88" height="8" rx="4" transform="translate(322 196)" fill="#e6eaf5"/>
    <rect id="Rectangle_54" data-name="Rectangle 54" width="21" height="8" rx="4" transform="translate(451 196)" fill="#e6eaf5" opacity="0.5"/>
    <line id="Line_1" data-name="Line 1" x2="149" transform="translate(322.5 325.5)" fill="none" stroke="#f8faff" stroke-linecap="round" stroke-linejoin="round" stroke-width="1"/>
    <line id="Line_2" data-name="Line 2" y1="105" transform="translate(321.5 220.5)" fill="none" stroke="#f8faff" stroke-linecap="round" stroke-linejoin="round" stroke-width="1"/>
    <path id="Path_75" data-name="Path 75" d="M338,238a8,8,0,0,1,8-8h19a8,8,0,0,1,8,8v87H338Z" fill="#f2dee6"/>
    <path id="Path_76" data-name="Path 76" d="M383,298a8,8,0,0,1,8-8h19a8,8,0,0,1,8,8v27H383Z" fill="#f2d6e1"/>
    <path id="Path_77" data-name="Path 77" d="M429,253a8,8,0,0,1,8-8h19a8,8,0,0,1,8,8v72H429Z" fill="#f2ccd7"/>
    
    <circle id="Ellipse_7" data-name="Ellipse 7" cx="13" cy="13" r="13" transform="translate(144 88)" fill="#f2ccd7"/>
    <rect id="Rectangle_55" data-name="Rectangle 55" width="68" height="10" rx="5" transform="translate(180 96)" fill="#f2ccd7"/>
    <circle id="Ellipse_8" data-name="Ellipse 8" cx="13" cy="13" r="13" transform="translate(144 138)" fill="#e6eaf5"/>
    <rect id="Rectangle_56" data-name="Rectangle 56" width="68" height="10" rx="5" transform="translate(180 146)" fill="#e6eaf5"/>
    <circle id="Ellipse_9" data-name="Ellipse 9" cx="13" cy="13" r="13" transform="translate(144 188)" fill="#e6eaf5"/>
    <rect id="Rectangle_57" data-name="Rectangle 57" width="68" height="10" rx="5" transform="translate(180 196)" fill="#e6eaf5"/>
    <circle id="Ellipse_10" data-name="Ellipse 10" cx="13" cy="13" r="13" transform="translate(144 238)" fill="#e6eaf5"/>
    <rect id="Rectangle_58" data-name="Rectangle 58" width="68" height="10" rx="5" transform="translate(180 246)" fill="#e6eaf5"/>
    <path id="Path_79" data-name="Path 79" d="M238,76h24V52A24,24,0,0,1,238,76Z" fill="#fff" fill-rule="evenodd"/>
    <path id="Path_80" data-name="Path 80" d="M154,76H130V52A24,24,0,0,0,154,76Z" fill="#fff" fill-rule="evenodd"/>
    <path id="Path_81" data-name="Path 81" d="M238,126h24v24A24,24,0,0,0,238,126Z" fill="#fff" fill-rule="evenodd"/>
    <path id="Path_82" data-name="Path 82" d="M154,126H130v24A24,24,0,0,1,154,126Z" fill="#fff" fill-rule="evenodd"/>
  </g>
</svg>