<?xml version="1.0" encoding="utf-8"?>
<!-- Generator: Adobe Illustrator 24.1.2, SVG Export Plug-In . SVG Version: 6.00 Build 0)  -->
<svg version="1.1" id="master-artboard" xmlns="http://www.w3.org/2000/svg" xmlns:xlink="http://www.w3.org/1999/xlink" x="0px"
	 y="0px" viewBox="0 0 1400 980" style="enable-background:new 0 0 1400 980;" xml:space="preserve">
<style type="text/css">
	.st0{fill:#FFFFFF;}
	.st1{fill:#7B88A8;}
	.st2{fill:#E6EAF5;}
	.st3{fill:#FAFAFA;}
	.st4{fill:#FF9F59;}
	.st5{fill:#C96924;}
	.st6{fill:#FEF7FD;}
	.st7{opacity:0.5;fill:#E6EAF5;enable-background:new    ;}
</style>
<rect id="ee-background" y="4.8" class="st0" width="1400" height="980"/>
<g transform="matrix(1.2120075225830078, 0, 0, 1.2120075225830078, 100.75986188694219, 71.62992084807729)">
	<g id="Component_Page_01" transform="translate(-3076.073 2522)">
		<g id="Group_5" transform="translate(2874.073 -2983)">
			<path id="Rectangle_3" class="st0" d="M699.9,623.9h176c13.3,0,24,10.7,24,24v102c0,13.3-10.7,24-24,24l0,0h-176
				c-13.3,0-24-10.7-24-24l0,0v-102C675.9,634.7,686.6,623.9,699.9,623.9z"/>
		</g>
		<path id="Path_70" class="st1" d="M3617-2320.1h7.4v-1.8h-5.2v-9.4h-2.1V-2320.1z M3625.2-2331.6v2.2h2.1v-2.2H3625.2z
			 M3625.3-2320.1h2v-8.1h-2V-2320.1z M3634.4-2320.1h2.4l-3.6-4.9l3.3-3.2h-2.5l-3.1,2.9v-6.4h-2v11.5h2v-2.7l1-0.9L3634.4-2320.1z
			 M3642.7-2322.8c-0.2,0.8-1,1.3-1.9,1.2c-1.2,0-2.2-0.9-2.2-2.1c0,0,0,0,0,0h6c0-0.2,0-0.4,0-0.7c0.1-2-1.5-3.8-3.5-3.9
			c-0.1,0-0.3,0-0.4,0c-2.1-0.1-3.9,1.6-4,3.7c0,0.1,0,0.3,0,0.4c-0.1,2.2,1.7,4.1,3.9,4.2c0.1,0,0.1,0,0.2,0
			c1.8,0.2,3.4-1.1,3.8-2.8L3642.7-2322.8z M3640.7-2326.8c1-0.1,1.9,0.7,1.9,1.7c0,0,0,0,0,0h-4
			C3638.7-2326.1,3639.6-2326.9,3640.7-2326.8C3640.7-2326.8,3640.7-2326.8,3640.7-2326.8L3640.7-2326.8z M3652.9-2320
			c2.3,0,4.1-1.9,4.1-4.2c0-2.3-1.9-4.1-4.2-4.1c-2.3,0-4.1,1.9-4.1,4.2c-0.1,2.2,1.7,4.1,3.9,4.2
			C3652.7-2320,3652.8-2320,3652.9-2320z M3652.9-2321.7c-1.4,0.1-2.6-0.9-2.7-2.2c-0.1-1.4,0.9-2.6,2.2-2.7s2.6,0.9,2.7,2.2
			c0,0.1,0,0.2,0,0.3c0.1,1.2-0.8,2.3-2,2.5C3653.1-2321.7,3653-2321.7,3652.9-2321.7L3652.9-2321.7z M3665.8-2328.2h-2v4.4
			c0.1,1-0.7,2-1.7,2c0,0-0.1,0-0.1,0c-0.9,0-1.7-0.8-1.7-1.7c0-0.1,0-0.1,0-0.2v-4.6h-2v5c-0.1,1.6,1,3,2.7,3.2c0.1,0,0.2,0,0.3,0
			c1,0.1,2-0.5,2.5-1.4v1.3h2L3665.8-2328.2z M3672.4-2326.5v-1.6h-0.9c-0.9-0.1-1.8,0.5-2.1,1.4v-1.4h-2v8.1h2v-3.8
			c0-1.5,0.5-2.6,1.7-2.6L3672.4-2326.5z M3679.6-2320c1.9,0,3.1-1,3.1-2.5c0-3.6-4.5-1.7-4.5-3.5c0-0.5,0.5-0.9,1.2-0.9
			c0.7,0,1.3,0.5,1.4,1.1h1.8c-0.1-1.6-1.4-2.6-3.3-2.6c-1.7,0-2.9,1-2.9,2.4c0,3.4,4.4,1.7,4.4,3.5c0,0.5-0.5,0.9-1.3,0.9
			c-0.8,0.1-1.5-0.5-1.6-1.2c0,0,0,0,0,0h-1.8C3676.4-2321,3677.7-2320,3679.6-2320L3679.6-2320z M3683.9-2331.6v2.2h2.1v-2.2
			L3683.9-2331.6z M3683.9-2320.1h2v-8.1h-2V-2320.1z M3688.5-2330.6v2.4h-1.6v1.6h1.6v3.6c-0.1,1.5,1,2.7,2.5,2.8
			c0.2,0,0.3,0,0.5,0h1.3v-1.7h-1.1c-0.6,0.1-1.1-0.4-1.2-1c0-0.1,0-0.2,0-0.3v-3.5h2.2v-1.6h-2.2v-2.4H3688.5z M3699.2-2322.8
			c-0.2,0.8-1,1.3-1.9,1.2c-1.2,0-2.2-0.9-2.2-2.1c0,0,0,0,0,0h6c0-0.2,0-0.4,0-0.7c0.1-2-1.5-3.8-3.5-3.9c-0.1,0-0.3,0-0.4,0
			c-2.1-0.1-3.9,1.6-4,3.7c0,0.1,0,0.3,0,0.4c-0.1,2.2,1.7,4.1,3.9,4.2c0.1,0,0.1,0,0.2,0c1.8,0.2,3.4-1.1,3.8-2.8H3699.2z
			 M3697.2-2326.8c1-0.1,1.9,0.7,1.9,1.7c0,0,0,0,0,0h-4C3695.2-2326.1,3696.1-2326.9,3697.2-2326.8
			C3697.2-2326.8,3697.2-2326.8,3697.2-2326.8L3697.2-2326.8z M3704.6-2323.1h2.2v-1.5h-2c-0.5,0-0.8-0.2-0.8-0.6
			c0-1.2,4.4-0.2,4.4-3.3c0-1.7-1.4-2.8-3.5-2.8c-1.8-0.2-3.4,1.2-3.6,3c0,0.1,0,0.2,0,0.3h1.9c0-0.9,0.7-1.6,1.6-1.7
			c0.1,0,0.1,0,0.2,0c1,0,1.5,0.4,1.5,1.2c0,1.8-4.3,0.5-4.3,3.5C3702.1-2323.8,3703.1-2323.1,3704.6-2323.1L3704.6-2323.1z
			 M3703.9-2322.2v2.1h2.1v-2.1L3703.9-2322.2z"/>
		<path id="Path_71" class="st2" d="M3589.9-2231.1c7.2,0,13-5.8,13-13s-5.8-13-13-13s-13,5.8-13,13l0,0
			C3576.9-2236.9,3582.8-2231.1,3589.9-2231.1z"/>
		<path id="Path_72" class="st1" d="M3587.4-2246.8l-3.5-2.8c-0.3-0.3-0.9-0.2-1.1,0.1c-0.3,0.3-0.2,0.9,0.1,1.1l0,0l1.7,1.4
			c-1.1,0.7-1.5,2.2-0.8,3.3c0.7,1.1,2.2,1.5,3.3,0.8c1.1-0.7,1.5-2.2,0.8-3.3C3587.8-2246.4,3587.6-2246.6,3587.4-2246.8z"/>
		<path id="Path_73" class="st3" d="M3585.9-2244.1c-0.4,0-0.8-0.3-0.8-0.8c0-0.4,0.3-0.8,0.8-0.8c0,0,0,0,0.1,0
			c0.2,0,0.4,0.1,0.5,0.2l0,0c0.3,0.3,0.4,0.8,0.1,1.1C3586.4-2244.2,3586.1-2244.1,3585.9-2244.1L3585.9-2244.1z"/>
		<path id="Path_74" class="st1" d="M3597.1-2249.5c-0.3-0.3-0.8-0.4-1.1-0.1c0,0,0,0,0,0l-3.5,2.8c-1.1,0.8-1.2,2.4-0.4,3.4
			c0.8,1.1,2.4,1.2,3.4,0.4c1.1-0.8,1.2-2.4,0.4-3.4c-0.2-0.2-0.4-0.4-0.6-0.6l1.7-1.4C3597.3-2248.6,3597.4-2249.1,3597.1-2249.5
			C3597.1-2249.5,3597.1-2249.5,3597.1-2249.5z"/>
		<path id="Path_75" class="st3" d="M3594-2245.7c0.4,0,0.8,0.4,0.8,0.8c0,0.4-0.4,0.8-0.8,0.8c-0.4,0-0.8-0.4-0.8-0.8
			c0-0.2,0.1-0.5,0.3-0.6C3593.6-2245.6,3593.8-2245.7,3594-2245.7z"/>
		<path id="Path_76" class="st1" d="M3594-2236c-0.2,0-0.4-0.1-0.6-0.2c-2-1.9-5-1.9-7,0c-0.3,0.3-0.8,0.3-1.1-0.1
			c-0.3-0.3-0.3-0.8,0-1.1c2.6-2.5,6.7-2.5,9.2,0c0.3,0.3,0.3,0.8,0,1.1C3594.4-2236.1,3594.2-2236,3594-2236L3594-2236z"/>
		<path id="Path_77" class="st2" d="M3623.9-2231.1c7.2,0,13-5.8,13-13s-5.8-13-13-13s-13,5.8-13,13l0,0
			C3610.9-2236.9,3616.8-2231.1,3623.9-2231.1z"/>
		<path id="Path_78" class="st1" d="M3629.1-2237.1c-0.2,0-0.4-0.1-0.6-0.2c-2.6-2.5-6.6-2.5-9.2,0c-0.3,0.3-0.8,0.3-1.1,0
			c-0.3-0.3-0.3-0.8,0-1.1l0,0c3.2-3.2,8.3-3.2,11.5,0c0,0,0,0,0,0c0.3,0.3,0.3,0.8,0,1.1
			C3629.5-2237.2,3629.3-2237.1,3629.1-2237.1z"/>
		<path id="Path_79" class="st1" d="M3619.1-2245.7c0.9,0,1.6-0.7,1.6-1.6s-0.7-1.6-1.6-1.6s-1.6,0.7-1.6,1.6
			C3617.4-2246.4,3618.2-2245.7,3619.1-2245.7z"/>
		<path id="Path_80" class="st1" d="M3628.8-2245.7c0.9,0,1.6-0.7,1.6-1.6s-0.7-1.6-1.6-1.6s-1.6,0.7-1.6,1.6
			C3627.2-2246.4,3627.9-2245.7,3628.8-2245.7z"/>
		<path id="Path_81" class="st2" d="M3657.9-2231.1c7.2,0,13-5.8,13-13s-5.8-13-13-13s-13,5.8-13,13l0,0
			C3644.9-2236.9,3650.8-2231.1,3657.9-2231.1z"/>
		<path id="Path_82" class="st1" d="M3653.1-2245.7c0.9,0,1.6-0.7,1.6-1.6s-0.7-1.6-1.6-1.6s-1.6,0.7-1.6,1.6
			C3651.4-2246.4,3652.2-2245.7,3653.1-2245.7z"/>
		<path id="Path_83" class="st1" d="M3662.8-2245.7c0.9,0,1.6-0.7,1.6-1.6s-0.7-1.6-1.6-1.6s-1.6,0.7-1.6,1.6
			C3661.2-2246.4,3661.9-2245.7,3662.8-2245.7z"/>
		<path id="Path_84" class="st1" d="M3662-2237.6h-8.1c-0.4,0-0.8-0.3-0.8-0.8c0-0.4,0.3-0.8,0.8-0.8c0,0,0,0,0.1,0h8.1
			c0.4,0,0.8,0.3,0.8,0.8C3662.9-2238,3662.5-2237.6,3662-2237.6C3662-2237.6,3662-2237.6,3662-2237.6z"/>
		<path id="Path_85" class="st2" d="M3691.9-2231.1c7.2,0,13-5.8,13-13s-5.8-13-13-13s-13,5.8-13,13l0,0
			C3678.9-2236.9,3684.8-2231.1,3691.9-2231.1z"/>
		<path id="Path_86" class="st1" d="M3691.9-2236c-2.2,0-4.2-0.9-5.7-2.4c-0.3-0.3-0.4-0.8-0.1-1.1c0.3-0.3,0.8-0.4,1.1-0.1
			c0,0,0.1,0.1,0.1,0.1c2.6,2.5,6.6,2.5,9.2,0c0.3-0.3,0.8-0.3,1.1,0c0.3,0.3,0.3,0.8,0,1.1C3696.2-2236.8,3694.1-2236,3691.9-2236z
			"/>
		<path id="Path_87" class="st1" d="M3688.7-2245.7h-3.2c-0.4,0-0.8-0.4-0.8-0.8c0-0.4,0.4-0.8,0.8-0.8h3.2c0.4,0,0.8,0.4,0.8,0.8
			C3689.5-2246.1,3689.1-2245.7,3688.7-2245.7z"/>
		<path id="Path_88" class="st1" d="M3696.8-2245.7c0.9,0,1.6-0.7,1.6-1.6s-0.7-1.6-1.6-1.6s-1.6,0.7-1.6,1.6
			C3695.2-2246.4,3695.9-2245.7,3696.8-2245.7z"/>
		<g id="Group_6" transform="translate(2874.073 -2983)">
			<path id="Path_89" class="st4" d="M861.9,755.9c11,0,20-9,20-20s-9-20-20-20s-20,9-20,20S850.8,755.9,861.9,755.9z"/>
			<path id="Path_90" class="st5" d="M873.1,732.2c-0.7,0-1.2-0.6-1.2-1.2c0-1.4-1.1-2.5-2.5-2.5c-1.4,0-2.5,1.1-2.5,2.5
				c0,0.7-0.6,1.2-1.2,1.2s-1.2-0.6-1.2-1.2c0-2.8,2.2-5,5-5s5,2.2,5,5C874.3,731.6,873.8,732.2,873.1,732.2
				C873.1,732.2,873.1,732.2,873.1,732.2z"/>
			<path id="Path_91" class="st5" d="M858.1,732.2c-0.7,0-1.2-0.6-1.2-1.2c0-1.4-1.1-2.5-2.5-2.5c-1.4,0-2.5,1.1-2.5,2.5
				c0,0.7-0.6,1.2-1.2,1.2s-1.2-0.6-1.2-1.2c0-2.8,2.2-5,5-5c2.8,0,5,2.2,5,5C859.3,731.6,858.8,732.2,858.1,732.2
				C858.1,732.2,858.1,732.2,858.1,732.2z"/>
			<path id="Path_92" class="st6" d="M876.1,738.9c-0.2-0.3-0.6-0.5-1-0.5h-26.5c-0.7,0-1.3,0.6-1.2,1.3c0,0.1,0,0.2,0,0.3
				c2.3,8,10.5,12.6,18.5,10.3c5-1.4,8.9-5.3,10.3-10.3C876.4,739.7,876.3,739.3,876.1,738.9z"/>
		</g>
		<path id="Rectangle_4" class="st7" d="M3611.9-2301.1h100c2.2,0,4,1.8,4,4l0,0c0,2.2-1.8,4-4,4h-100c-2.2,0-4-1.8-4-4l0,0
			C3607.9-2299.3,3609.7-2301.1,3611.9-2301.1z"/>
		<path id="Rectangle_5" class="st7" d="M3623.9-2285.1h76c2.2,0,4,1.8,4,4l0,0c0,2.2-1.8,4-4,4h-76c-2.2,0-4-1.8-4-4l0,0
			C3619.9-2283.3,3621.7-2285.1,3623.9-2285.1z"/>
	</g>
</g>
<path class="st0" d="M177.1,54.6L160,60.3"/>
<g transform="matrix(1.2120075225830078, 0, 0, 1.2120075225830078, 1020.8201669008602, 178.1856332558231)">
	<g id="g-1" transform="translate(-3076.073 2522)">
		<g id="g-2" transform="translate(2874.073 -2983)">
			<path id="path-2" class="st0" d="M226,461h176c13.3,0,24,10.7,24,24v102c0,13.3-10.7,24-24,24l0,0H226c-13.3,0-24-10.7-24-24l0,0
				V485C202,471.7,212.7,461,226,461z"/>
		</g>
		<path id="path-3" class="st1" d="M3143.2-2483h7.4v-1.8h-5.2v-9.4h-2.1V-2483z M3151.4-2494.5v2.2h2.1v-2.2H3151.4z M3151.4-2483
			h2v-8.1h-2V-2483z M3160.6-2483h2.4l-3.6-4.9l3.3-3.2h-2.5l-3.1,2.9v-6.4h-2v11.5h2v-2.7l1-0.9L3160.6-2483z M3168.9-2485.7
			c-0.2,0.8-1,1.3-1.9,1.2c-1.2,0-2.2-0.9-2.2-2.1c0,0,0,0,0,0h6c0-0.2,0-0.4,0-0.7c0.1-2-1.5-3.8-3.5-3.9c-0.1,0-0.3,0-0.4,0
			c-2.1-0.1-3.9,1.6-4,3.7c0,0.1,0,0.3,0,0.4c-0.1,2.2,1.7,4.1,3.9,4.2c0.1,0,0.1,0,0.2,0c1.8,0.2,3.4-1.1,3.8-2.8H3168.9z
			 M3166.8-2489.7c1-0.1,1.9,0.7,1.9,1.7c0,0,0,0,0,0h-4C3164.9-2489,3165.7-2489.8,3166.8-2489.7
			C3166.8-2489.7,3166.8-2489.7,3166.8-2489.7L3166.8-2489.7z M3179.1-2482.9c2.3,0,4.1-1.9,4.1-4.2c0-2.3-1.9-4.1-4.2-4.1
			c-2.3,0-4.1,1.9-4.1,4.2c-0.1,2.2,1.7,4.1,3.9,4.2C3178.9-2482.9,3179-2482.9,3179.1-2482.9z M3179.1-2484.6
			c-1.4,0.1-2.6-0.9-2.7-2.2c-0.1-1.4,0.9-2.6,2.2-2.7c1.4-0.1,2.6,0.9,2.7,2.2c0,0.1,0,0.2,0,0.3c0.1,1.2-0.8,2.3-2,2.5
			C3179.2-2484.6,3179.1-2484.6,3179.1-2484.6L3179.1-2484.6z M3191.9-2491.1h-2v4.4c0.1,1-0.7,2-1.7,2c0,0-0.1,0-0.1,0
			c-0.9,0-1.7-0.8-1.7-1.7c0-0.1,0-0.1,0-0.2v-4.6h-2v5c-0.1,1.6,1,3,2.7,3.2c0.1,0,0.2,0,0.3,0c1,0.1,2-0.5,2.5-1.4v1.3h2
			L3191.9-2491.1z M3198.5-2489.4v-1.6h-0.9c-0.9-0.1-1.8,0.5-2.1,1.4v-1.4h-2v8.1h2v-3.8c0-1.5,0.5-2.6,1.7-2.6L3198.5-2489.4z
			 M3205.7-2482.9c1.9,0,3.1-1,3.1-2.5c0-3.6-4.5-1.7-4.5-3.5c0-0.5,0.5-0.9,1.2-0.9c0.7,0,1.3,0.5,1.4,1.1h1.8
			c-0.1-1.6-1.4-2.6-3.3-2.6c-1.7,0-2.9,1-2.9,2.4c0,3.4,4.4,1.7,4.4,3.5c0,0.5-0.5,0.9-1.3,0.9c-0.8,0.1-1.5-0.5-1.6-1.2
			c0,0,0,0,0,0h-1.8C3202.5-2484,3203.8-2482.9,3205.7-2482.9L3205.7-2482.9z M3210-2494.5v2.2h2.1v-2.2L3210-2494.5z M3210.1-2483
			h2v-8.1h-2V-2483z M3214.6-2493.5v2.4h-1.6v1.6h1.6v3.6c-0.1,1.5,1,2.7,2.5,2.8c0.2,0,0.3,0,0.5,0h1.3v-1.7h-1.1
			c-0.6,0.1-1.1-0.4-1.2-1c0-0.1,0-0.2,0-0.3v-3.5h2.2v-1.6h-2.2v-2.4H3214.6z M3225.3-2485.7c-0.2,0.8-1,1.3-1.9,1.2
			c-1.2,0-2.2-0.9-2.2-2.1c0,0,0,0,0,0h6c0-0.2,0-0.4,0-0.7c0.1-2-1.5-3.8-3.5-3.9c-0.1,0-0.3,0-0.4,0c-2.1-0.1-3.9,1.6-4,3.7
			c0,0.1,0,0.3,0,0.4c-0.1,2.2,1.7,4.1,3.9,4.2c0.1,0,0.1,0,0.2,0c1.8,0.2,3.4-1.1,3.8-2.8L3225.3-2485.7z M3223.3-2489.7
			c1-0.1,1.9,0.7,1.9,1.7c0,0,0,0,0,0h-4C3221.3-2489,3222.2-2489.8,3223.3-2489.7C3223.3-2489.7,3223.3-2489.7,3223.3-2489.7
			L3223.3-2489.7z M3230.7-2486h2.2v-1.5h-2c-0.5,0-0.8-0.2-0.8-0.6c0-1.2,4.4-0.2,4.4-3.3c0-1.7-1.4-2.8-3.5-2.8
			c-1.8-0.2-3.4,1.2-3.6,3c0,0.1,0,0.2,0,0.3h1.9c0-0.9,0.7-1.6,1.6-1.7c0.1,0,0.1,0,0.2,0c1,0,1.5,0.4,1.5,1.2
			c0,1.8-4.3,0.5-4.3,3.5C3228.2-2486.7,3229.2-2486,3230.7-2486L3230.7-2486z M3230-2485.1v2.1h2.1v-2.1L3230-2485.1z"/>
		<path id="path-4" class="st2" d="M3116.1-2394c7.2,0,13-5.8,13-13s-5.8-13-13-13s-13,5.8-13,13l0,0
			C3103.1-2399.8,3108.9-2394,3116.1-2394z"/>
		<path id="path-5" class="st1" d="M3113.5-2409.7l-3.5-2.8c-0.3-0.3-0.9-0.2-1.1,0.1c-0.3,0.3-0.2,0.9,0.1,1.1l0,0l1.7,1.4
			c-1.1,0.7-1.5,2.2-0.8,3.3c0.7,1.1,2.2,1.5,3.3,0.8c1.1-0.7,1.5-2.2,0.8-3.3C3113.9-2409.3,3113.8-2409.5,3113.5-2409.7z"/>
		<path id="path-6" class="st3" d="M3112-2407c-0.4,0-0.8-0.3-0.8-0.8c0-0.4,0.3-0.8,0.8-0.8c0,0,0,0,0.1,0c0.2,0,0.4,0.1,0.5,0.2
			l0,0c0.3,0.3,0.4,0.8,0.1,1.1C3112.5-2407.1,3112.3-2407,3112-2407L3112-2407z"/>
		<path id="path-7" class="st1" d="M3123.2-2412.4c-0.3-0.3-0.8-0.4-1.1-0.1c0,0,0,0,0,0l-3.5,2.8c-1.1,0.8-1.2,2.4-0.4,3.4
			c0.8,1.1,2.4,1.2,3.4,0.4c1.1-0.8,1.2-2.4,0.4-3.4c-0.2-0.2-0.4-0.4-0.6-0.6l1.7-1.4C3123.4-2411.5,3123.5-2412,3123.2-2412.4
			C3123.2-2412.4,3123.2-2412.4,3123.2-2412.4z"/>
		<path id="path-8" class="st3" d="M3120.1-2408.6c0.4,0,0.8,0.4,0.8,0.8c0,0.4-0.4,0.8-0.8,0.8c-0.4,0-0.8-0.4-0.8-0.8
			c0-0.2,0.1-0.5,0.3-0.6C3119.8-2408.6,3119.9-2408.6,3120.1-2408.6z"/>
		<path id="path-9" class="st1" d="M3120.1-2398.9c-0.2,0-0.4-0.1-0.6-0.2c-2-1.9-5-1.9-7,0c-0.3,0.3-0.8,0.3-1.1-0.1
			c-0.3-0.3-0.3-0.8,0-1.1c2.6-2.5,6.7-2.5,9.2,0c0.3,0.3,0.3,0.8,0,1.1C3120.6-2399,3120.4-2398.9,3120.1-2398.9L3120.1-2398.9z"/>
		<path id="path-10" class="st2" d="M3150.1-2394c7.2,0,13-5.8,13-13s-5.8-13-13-13s-13,5.8-13,13l0,0
			C3137.1-2399.8,3142.9-2394,3150.1-2394z"/>
		<path id="path-11" class="st1" d="M3155.2-2400c-0.2,0-0.4-0.1-0.6-0.2c-2.6-2.5-6.6-2.5-9.2,0c-0.3,0.3-0.8,0.3-1.1,0
			c-0.3-0.3-0.3-0.8,0-1.1l0,0c3.2-3.2,8.3-3.2,11.5,0c0,0,0,0,0,0c0.3,0.3,0.3,0.8,0,1.1C3155.7-2400.1,3155.5-2400,3155.2-2400z"
			/>
		<path id="path-12" class="st1" d="M3145.2-2408.6c0.9,0,1.6-0.7,1.6-1.6s-0.7-1.6-1.6-1.6s-1.6,0.7-1.6,1.6
			C3143.6-2409.4,3144.3-2408.6,3145.2-2408.6z"/>
		<path id="path-13" class="st1" d="M3154.9-2408.6c0.9,0,1.6-0.7,1.6-1.6s-0.7-1.6-1.6-1.6s-1.6,0.7-1.6,1.6
			C3153.3-2409.4,3154.1-2408.6,3154.9-2408.6z"/>
		<path id="path-14" class="st2" d="M3184.1-2394c7.2,0,13-5.8,13-13s-5.8-13-13-13s-13,5.8-13,13l0,0
			C3171.1-2399.8,3176.9-2394,3184.1-2394z"/>
		<path id="path-15" class="st1" d="M3179.2-2408.6c0.9,0,1.6-0.7,1.6-1.6s-0.7-1.6-1.6-1.6s-1.6,0.7-1.6,1.6
			C3177.6-2409.4,3178.3-2408.6,3179.2-2408.6z"/>
		<path id="path-16" class="st1" d="M3188.9-2408.6c0.9,0,1.6-0.7,1.6-1.6s-0.7-1.6-1.6-1.6s-1.6,0.7-1.6,1.6
			C3187.3-2409.4,3188.1-2408.6,3188.9-2408.6z"/>
		<path id="path-17" class="st1" d="M3188.1-2400.5h-8.1c-0.4,0-0.8-0.3-0.8-0.8c0-0.4,0.3-0.8,0.8-0.8c0,0,0,0,0.1,0h8.1
			c0.4,0,0.8,0.3,0.8,0.8C3189-2400.9,3188.6-2400.5,3188.1-2400.5C3188.2-2400.5,3188.2-2400.5,3188.1-2400.5z"/>
		<path id="path-18" class="st2" d="M3218.1-2394c7.2,0,13-5.8,13-13s-5.8-13-13-13s-13,5.8-13,13l0,0
			C3205.1-2399.8,3210.9-2394,3218.1-2394z"/>
		<path id="path-19" class="st1" d="M3218.1-2398.9c-2.2,0-4.2-0.9-5.7-2.4c-0.3-0.3-0.4-0.8-0.1-1.1c0.3-0.3,0.8-0.4,1.1-0.1
			c0,0,0.1,0.1,0.1,0.1c2.6,2.5,6.6,2.5,9.2,0c0.3-0.3,0.8-0.3,1.1,0c0.3,0.3,0.3,0.8,0,1.1
			C3222.3-2399.7,3220.2-2398.9,3218.1-2398.9z"/>
		<path id="path-20" class="st1" d="M3214.8-2408.6h-3.2c-0.4,0-0.8-0.4-0.8-0.8c0-0.4,0.4-0.8,0.8-0.8h3.2c0.4,0,0.8,0.4,0.8,0.8
			C3215.6-2409,3215.2-2408.6,3214.8-2408.6z"/>
		<path id="path-21" class="st1" d="M3222.9-2408.6c0.9,0,1.6-0.7,1.6-1.6s-0.7-1.6-1.6-1.6s-1.6,0.7-1.6,1.6
			C3221.3-2409.4,3222.1-2408.6,3222.9-2408.6z"/>
		<g id="g-3" transform="translate(2874.073 -2983)">
			<path id="path-22" class="st4" d="M388,593c11,0,20-9,20-20s-9-20-20-20c-11,0-20,9-20,20S377,593,388,593z"/>
			<path id="path-23" class="st5" d="M399.2,569.3c-0.7,0-1.2-0.6-1.2-1.2c0-1.4-1.1-2.5-2.5-2.5c-1.4,0-2.5,1.1-2.5,2.5
				c0,0.7-0.6,1.2-1.2,1.2s-1.2-0.6-1.2-1.2c0-2.8,2.2-5,5-5c2.8,0,5,2.2,5,5C400.5,568.7,399.9,569.3,399.2,569.3
				C399.2,569.3,399.2,569.3,399.2,569.3z"/>
			<path id="path-24" class="st5" d="M384.2,569.3c-0.7,0-1.2-0.6-1.2-1.2c0-1.4-1.1-2.5-2.5-2.5s-2.5,1.1-2.5,2.5
				c0,0.7-0.6,1.2-1.2,1.2s-1.2-0.6-1.2-1.2c0-2.8,2.2-5,5-5s5,2.2,5,5C385.5,568.7,384.9,569.3,384.2,569.3
				C384.2,569.3,384.2,569.3,384.2,569.3z"/>
			<path id="path-25" class="st6" d="M402.2,576c-0.2-0.3-0.6-0.5-1-0.5h-26.5c-0.7,0-1.3,0.6-1.2,1.3c0,0.1,0,0.2,0,0.3
				c2.3,8,10.5,12.6,18.5,10.3c5-1.4,8.9-5.3,10.3-10.3C402.5,576.7,402.4,576.3,402.2,576z"/>
		</g>
		<path id="path-26" class="st7" d="M3138.1-2464h100c2.2,0,4,1.8,4,4l0,0c0,2.2-1.8,4-4,4h-100c-2.2,0-4-1.8-4-4l0,0
			C3134.1-2462.2,3135.9-2464,3138.1-2464z"/>
		<path id="path-27" class="st7" d="M3150.1-2448h76c2.2,0,4,1.8,4,4l0,0c0,2.2-1.8,4-4,4h-76c-2.2,0-4-1.8-4-4l0,0
			C3146.1-2446.2,3147.9-2448,3150.1-2448z"/>
	</g>
</g>
<path class="st0" d="M1097.2,161.2l-17.1,5.7"/>
</svg>
