<?xml version="1.0" encoding="utf-8"?>
<!-- Generator: Adobe Illustrator 24.1.2, SVG Export Plug-In . SVG Version: 6.00 Build 0)  -->
<svg version="1.1" id="Layer_1" xmlns="http://www.w3.org/2000/svg" xmlns:xlink="http://www.w3.org/1999/xlink" x="0px" y="0px"
	 viewBox="0 0 1296 479" style="enable-background:new 0 0 1296 479;" xml:space="preserve">
<style type="text/css">
	.st0{opacity:0.16;}
	.st1{opacity:0;}
	.st2{fill:#FFFFFF;}
	.st3{fill:#F8FAFF;}
	.st4{opacity:0.2;}
	.st5{opacity:0.5;fill:#E6EAF5;enable-background:new    ;}
	.st6{fill:#E6EAF5;}
	.st7{fill:none;stroke:#F8FAFF;stroke-linecap:round;stroke-linejoin:round;}
	.st8{fill:#F2DEE6;}
	.st9{fill:#F2D6E1;}
	.st10{fill:#F2CCD7;}
	.st11{fill-rule:evenodd;clip-rule:evenodd;fill:#FFFFFF;}
</style>
<g class="st0">
</g>
<g id="dashboard" transform="translate(-106)" class="st1">
	<g id="Group_14">
		<path id="Rectangle_34" class="st2" d="M621.18,299.95h270.65c6.23,0,11.28,5.05,11.28,11.28v160.7c0,6.23-5.05,11.28-11.28,11.28
			H621.18c-6.23,0-11.28-5.05-11.28-11.28v-160.7C609.9,305,614.95,299.95,621.18,299.95z"/>
	</g>
	<path id="Rectangle_35" class="st3" d="M624.94,359.16h54.51c2.08,0,3.76,1.68,3.76,3.76v105.25c0,2.08-1.68,3.76-3.76,3.76h-54.51
		c-2.08,0-3.76-1.68-3.76-3.76V362.92C621.18,360.84,622.86,359.16,624.94,359.16z"/>
	<g id="Group_19" class="st4">
		<path id="Path_70" class="st2" d="M847.34,431.84c2.94,2.94,2.94,7.7,0,10.63c-2.94,2.94-7.7,2.94-10.63,0
			c-2.94-2.94-2.94-7.7,0-10.63C839.65,428.9,844.41,428.9,847.34,431.84C847.34,431.84,847.34,431.84,847.34,431.84z"/>
	</g>
	<path id="Rectangle_47" class="st5" d="M866.93,392.05h6.11c1.04,0,1.88,0.84,1.88,1.88l0,0c0,1.04-0.84,1.88-1.88,1.88h-6.11
		c-1.04,0-1.88-0.84-1.88-1.88l0,0C865.05,392.89,865.89,392.05,866.93,392.05z"/>
	<g id="Group_20">
		<path id="Rectangle_52" class="st2" d="M709.52,386.41h74.24c2.08,0,3.76,1.68,3.76,3.76v66.72c0,2.08-1.68,3.76-3.76,3.76h-74.24
			c-2.08,0-3.76-1.68-3.76-3.76v-66.72C705.76,388.09,707.44,386.41,709.52,386.41z"/>
	</g>
	<path id="Rectangle_53" class="st6" d="M713.28,392.05h37.59c1.04,0,1.88,0.84,1.88,1.88l0,0c0,1.04-0.84,1.88-1.88,1.88h-37.59
		c-1.04,0-1.88-0.84-1.88-1.88l0,0C711.4,392.89,712.24,392.05,713.28,392.05z"/>
	<path id="Rectangle_54" class="st5" d="M773.89,392.05H780c1.04,0,1.88,0.84,1.88,1.88l0,0c0,1.04-0.84,1.88-1.88,1.88h-6.11
		c-1.04,0-1.88-0.84-1.88-1.88l0,0C772.01,392.89,772.86,392.05,773.89,392.05z"/>
	<line id="Line_1" class="st7" x1="711.63" y1="452.9" x2="781.65" y2="452.9"/>
	<line id="Line_2" class="st7" x1="711.16" y1="452.9" x2="711.16" y2="403.56"/>
	<path id="Path_75" class="st8" d="M718.92,411.78c0-2.08,1.68-3.76,3.76-3.76h8.93c2.08,0,3.76,1.68,3.76,3.76v40.88h-16.45V411.78
		z"/>
	<path id="Path_76" class="st9" d="M740.06,439.98c0-2.08,1.68-3.76,3.76-3.76h8.93c2.08,0,3.76,1.68,3.76,3.76v12.69h-16.45V439.98
		z"/>
	<path id="Path_77" class="st10" d="M761.68,418.83c0-2.08,1.68-3.76,3.76-3.76h8.93c2.08,0,3.76,1.68,3.76,3.76v33.83h-16.45
		V418.83z"/>
	<circle id="Ellipse_8" class="st6" cx="633.87" cy="370.9" r="6.11"/>
	<path id="Rectangle_56" class="st6" d="M647.03,368.55h27.25c1.3,0,2.35,1.05,2.35,2.35l0,0c0,1.3-1.05,2.35-2.35,2.35h-27.25
		c-1.3,0-2.35-1.05-2.35-2.35l0,0C644.68,369.61,645.73,368.55,647.03,368.55z"/>
	<circle id="Ellipse_9" class="st6" cx="633.87" cy="394.4" r="6.11"/>
	<path id="Rectangle_57" class="st6" d="M647.03,392.05h27.25c1.3,0,2.35,1.05,2.35,2.35l0,0c0,1.3-1.05,2.35-2.35,2.35h-27.25
		c-1.3,0-2.35-1.05-2.35-2.35l0,0C644.68,393.1,645.73,392.05,647.03,392.05z"/>
	<circle id="Ellipse_10" class="st6" cx="633.87" cy="417.89" r="6.11"/>
	<path id="Rectangle_58" class="st6" d="M647.03,415.54h27.25c1.3,0,2.35,1.05,2.35,2.35l0,0c0,1.3-1.05,2.35-2.35,2.35h-27.25
		c-1.3,0-2.35-1.05-2.35-2.35l0,0C644.68,416.59,645.73,415.54,647.03,415.54z"/>
	<path id="Path_81" class="st11" d="M671.93,359.16h11.28v11.28C683.21,364.21,678.16,359.16,671.93,359.16z"/>
	<path id="Path_82" class="st11" d="M632.46,359.16h-11.28v11.28C621.18,364.21,626.23,359.16,632.46,359.16z"/>
	<path id="Rectangle_35_1_" class="st3" d="M806.78,357.51h54.51c2.08,0,3.76,1.68,3.76,3.76v105.25c0,2.08-1.68,3.76-3.76,3.76
		h-54.51c-2.08,0-3.76-1.68-3.76-3.76V361.27C803.03,359.19,804.71,357.51,806.78,357.51z"/>
	<circle id="Ellipse_8_1_" class="st6" cx="852.25" cy="422.52" r="6.11"/>
	<path id="Rectangle_56_1_" class="st6" d="M839.09,424.81l-27.25-0.13c-1.3-0.01-2.34-1.06-2.34-2.36l0,0
		c0.01-1.3,1.06-2.34,2.36-2.34l27.25,0.13c1.3,0.01,2.34,1.06,2.34,2.36l0,0C841.44,423.77,840.39,424.81,839.09,424.81z"/>
	<circle id="Ellipse_9_1_" class="st6" cx="852.36" cy="399.02" r="6.11"/>
	<path id="Rectangle_57_1_" class="st6" d="M839.2,401.31l-27.25-0.13c-1.3-0.01-2.34-1.06-2.34-2.36l0,0
		c0.01-1.3,1.06-2.34,2.36-2.34l27.25,0.13c1.3,0.01,2.34,1.06,2.34,2.36l0,0C841.55,400.27,840.49,401.32,839.2,401.31z"/>
	<circle id="Ellipse_10_1_" class="st6" cx="852.47" cy="375.53" r="6.11"/>
	<path id="Rectangle_58_1_" class="st6" d="M839.3,377.82l-27.25-0.13c-1.3-0.01-2.34-1.06-2.34-2.36l0,0
		c0.01-1.3,1.06-2.34,2.36-2.34l27.25,0.13c1.3,0.01,2.34,1.06,2.34,2.36l0,0C841.66,376.78,840.6,377.83,839.3,377.82z"/>
</g>
<g class="st0">
</g>
<g id="dashboard_1_" transform="translate(-106)" class="st1">
	<path id="Rectangle_35_3_" class="st3" d="M362.74,361.07h54.51c2.08,0,3.76,1.68,3.76,3.76v105.25c0,2.08-1.68,3.76-3.76,3.76
		h-54.51c-2.08,0-3.76-1.68-3.76-3.76V364.83C358.98,362.75,360.66,361.07,362.74,361.07z"/>
	<g id="Group_19_1_" class="st4">
		<path id="Path_70_1_" class="st2" d="M585.14,433.75c2.94,2.94,2.94,7.7,0,10.63c-2.94,2.94-7.7,2.94-10.63,0
			c-2.94-2.94-2.94-7.7,0-10.63C577.44,430.82,582.2,430.82,585.14,433.75C585.14,433.75,585.14,433.75,585.14,433.75z"/>
	</g>
	<path id="Rectangle_47_1_" class="st5" d="M604.72,393.96h6.11c1.04,0,1.88,0.84,1.88,1.88l0,0c0,1.04-0.84,1.88-1.88,1.88h-6.11
		c-1.04,0-1.88-0.84-1.88-1.88l0,0C602.84,394.8,603.69,393.96,604.72,393.96z"/>
	<g id="Group_20_1_">
		<path id="Rectangle_52_1_" class="st2" d="M447.31,388.32h74.24c2.08,0,3.76,1.68,3.76,3.76v66.72c0,2.08-1.68,3.76-3.76,3.76
			h-74.24c-2.08,0-3.76-1.68-3.76-3.76v-66.72C443.55,390,445.24,388.32,447.31,388.32z"/>
	</g>
	<path id="Rectangle_53_1_" class="st6" d="M451.07,393.96h37.59c1.04,0,1.88,0.84,1.88,1.88l0,0c0,1.04-0.84,1.88-1.88,1.88h-37.59
		c-1.04,0-1.88-0.84-1.88-1.88l0,0C449.19,394.8,450.03,393.96,451.07,393.96z"/>
	<path id="Rectangle_54_1_" class="st5" d="M511.69,393.96h6.11c1.04,0,1.88,0.84,1.88,1.88l0,0c0,1.04-0.84,1.88-1.88,1.88h-6.11
		c-1.04,0-1.88-0.84-1.88-1.88l0,0C509.81,394.8,510.65,393.96,511.69,393.96z"/>
	<line id="Line_1_1_" class="st7" x1="449.43" y1="454.81" x2="519.44" y2="454.81"/>
	<line id="Line_2_1_" class="st7" x1="448.96" y1="454.81" x2="448.96" y2="405.47"/>
	<path id="Path_75_1_" class="st8" d="M456.71,413.69c0-2.08,1.68-3.76,3.76-3.76h8.93c2.08,0,3.76,1.68,3.76,3.76v40.88h-16.45
		V413.69z"/>
	<path id="Path_76_1_" class="st9" d="M477.86,441.89c0-2.08,1.68-3.76,3.76-3.76h8.93c2.08,0,3.76,1.68,3.76,3.76v12.69h-16.45
		V441.89z"/>
	<path id="Path_77_1_" class="st10" d="M499.47,420.74c0-2.08,1.68-3.76,3.76-3.76h8.93c2.08,0,3.76,1.68,3.76,3.76v33.83h-16.45
		V420.74z"/>
	<circle id="Ellipse_8_3_" class="st6" cx="371.66" cy="372.81" r="6.11"/>
	<path id="Rectangle_56_3_" class="st6" d="M384.82,370.46h27.25c1.3,0,2.35,1.05,2.35,2.35l0,0c0,1.3-1.05,2.35-2.35,2.35h-27.25
		c-1.3,0-2.35-1.05-2.35-2.35l0,0C382.47,371.52,383.52,370.46,384.82,370.46z"/>
	<circle id="Ellipse_9_3_" class="st6" cx="371.66" cy="396.31" r="6.11"/>
	<path id="Rectangle_57_3_" class="st6" d="M384.82,393.96h27.25c1.3,0,2.35,1.05,2.35,2.35l0,0c0,1.3-1.05,2.35-2.35,2.35h-27.25
		c-1.3,0-2.35-1.05-2.35-2.35l0,0C382.47,395.01,383.52,393.96,384.82,393.96z"/>
	<circle id="Ellipse_10_3_" class="st6" cx="371.66" cy="419.8" r="6.11"/>
	<path id="Rectangle_58_3_" class="st6" d="M384.82,417.45h27.25c1.3,0,2.35,1.05,2.35,2.35l0,0c0,1.3-1.05,2.35-2.35,2.35h-27.25
		c-1.3,0-2.35-1.05-2.35-2.35l0,0C382.47,418.5,383.52,417.45,384.82,417.45z"/>
	<path id="Path_81_1_" class="st11" d="M409.72,361.07H421v11.28C421,366.12,415.95,361.07,409.72,361.07z"/>
	<path id="Path_82_1_" class="st11" d="M370.25,361.07h-11.28v11.28C358.98,366.12,364.03,361.07,370.25,361.07z"/>
	<path id="Rectangle_35_2_" class="st3" d="M544.58,359.42h54.51c2.08,0,3.76,1.68,3.76,3.76v105.25c0,2.08-1.68,3.76-3.76,3.76
		h-54.51c-2.08,0-3.76-1.68-3.76-3.76V363.18C540.82,361.1,542.5,359.42,544.58,359.42z"/>
	<circle id="Ellipse_8_2_" class="st6" cx="590.05" cy="424.43" r="6.11"/>
	<path id="Rectangle_56_2_" class="st6" d="M576.88,426.72l-27.25-0.13c-1.3-0.01-2.34-1.06-2.34-2.36l0,0
		c0.01-1.3,1.06-2.34,2.36-2.34l27.25,0.13c1.3,0.01,2.34,1.06,2.34,2.36l0,0C579.24,425.68,578.18,426.72,576.88,426.72z"/>
	<circle id="Ellipse_9_2_" class="st6" cx="590.16" cy="400.93" r="6.11"/>
	<path id="Rectangle_57_2_" class="st6" d="M576.99,403.22l-27.25-0.13c-1.3-0.01-2.34-1.06-2.34-2.36l0,0
		c0.01-1.3,1.06-2.34,2.36-2.34l27.25,0.13c1.3,0.01,2.34,1.06,2.34,2.36l0,0C579.34,402.18,578.29,403.23,576.99,403.22z"/>
	<circle id="Ellipse_10_2_" class="st6" cx="590.27" cy="377.44" r="6.11"/>
	<path id="Rectangle_58_2_" class="st6" d="M577.1,379.73l-27.25-0.13c-1.3-0.01-2.34-1.06-2.34-2.36l0,0
		c0.01-1.3,1.06-2.34,2.36-2.34l27.25,0.13c1.3,0.01,2.34,1.06,2.34,2.36l0,0C579.45,378.69,578.4,379.74,577.1,379.73z"/>
</g>
<g id="dashboard_2_" transform="translate(-106)" class="st1">
	<path id="Rectangle_35_5_" class="st3" d="M886.63,359.51h54.51c2.08,0,3.76,1.68,3.76,3.76v105.25c0,2.08-1.68,3.76-3.76,3.76
		h-54.51c-2.08,0-3.76-1.68-3.76-3.76V363.27C882.88,361.2,884.56,359.51,886.63,359.51z"/>
	<g id="Group_19_2_" class="st4">
		<path id="Path_70_2_" class="st2" d="M1109.04,432.2c2.94,2.94,2.94,7.7,0,10.63c-2.94,2.94-7.7,2.94-10.63,0
			c-2.94-2.94-2.94-7.7,0-10.63C1101.34,429.26,1106.1,429.26,1109.04,432.2C1109.04,432.2,1109.04,432.2,1109.04,432.2z"/>
	</g>
	<path id="Rectangle_47_2_" class="st5" d="M1128.62,392.4h6.11c1.04,0,1.88,0.84,1.88,1.88l0,0c0,1.04-0.84,1.88-1.88,1.88h-6.11
		c-1.04,0-1.88-0.84-1.88-1.88l0,0C1126.74,393.25,1127.59,392.4,1128.62,392.4z"/>
	<g id="Group_20_2_">
		<path id="Rectangle_52_2_" class="st2" d="M971.21,386.77h74.24c2.08,0,3.76,1.68,3.76,3.76v66.72c0,2.08-1.68,3.76-3.76,3.76
			h-74.24c-2.08,0-3.76-1.68-3.76-3.76v-66.72C967.45,388.45,969.14,386.77,971.21,386.77z"/>
	</g>
	<path id="Rectangle_53_2_" class="st6" d="M974.97,392.4h37.59c1.04,0,1.88,0.84,1.88,1.88l0,0c0,1.04-0.84,1.88-1.88,1.88h-37.59
		c-1.04,0-1.88-0.84-1.88-1.88l0,0C973.09,393.25,973.93,392.4,974.97,392.4z"/>
	<path id="Rectangle_54_2_" class="st5" d="M1035.59,392.4h6.11c1.04,0,1.88,0.84,1.88,1.88l0,0c0,1.04-0.84,1.88-1.88,1.88h-6.11
		c-1.04,0-1.88-0.84-1.88-1.88l0,0C1033.71,393.25,1034.55,392.4,1035.59,392.4z"/>
	<line id="Line_1_2_" class="st7" x1="973.33" y1="453.25" x2="1043.34" y2="453.25"/>
	<line id="Line_2_2_" class="st7" x1="972.86" y1="453.25" x2="972.86" y2="403.92"/>
	<path id="Path_75_2_" class="st8" d="M980.61,412.14c0-2.08,1.68-3.76,3.76-3.76h8.93c2.08,0,3.76,1.68,3.76,3.76v40.88h-16.45
		V412.14z"/>
	<path id="Path_76_2_" class="st9" d="M1001.76,440.33c0-2.08,1.68-3.76,3.76-3.76h8.93c2.08,0,3.76,1.68,3.76,3.76v12.69h-16.45
		V440.33z"/>
	<path id="Path_77_2_" class="st10" d="M1023.37,419.19c0-2.08,1.68-3.76,3.76-3.76h8.93c2.08,0,3.76,1.68,3.76,3.76v33.83h-16.45
		V419.19z"/>
	<circle id="Ellipse_8_5_" class="st6" cx="895.56" cy="371.26" r="6.11"/>
	<path id="Rectangle_56_5_" class="st6" d="M908.72,368.91h27.25c1.3,0,2.35,1.05,2.35,2.35l0,0c0,1.3-1.05,2.35-2.35,2.35h-27.25
		c-1.3,0-2.35-1.05-2.35-2.35l0,0C906.37,369.96,907.42,368.91,908.72,368.91z"/>
	<circle id="Ellipse_9_5_" class="st6" cx="895.56" cy="394.75" r="6.11"/>
	<path id="Rectangle_57_5_" class="st6" d="M908.72,392.4h27.25c1.3,0,2.35,1.05,2.35,2.35l0,0c0,1.3-1.05,2.35-2.35,2.35h-27.25
		c-1.3,0-2.35-1.05-2.35-2.35l0,0C906.37,393.46,907.42,392.4,908.72,392.4z"/>
	<circle id="Ellipse_10_5_" class="st6" cx="895.56" cy="418.25" r="6.11"/>
	<path id="Rectangle_58_5_" class="st6" d="M908.72,415.9h27.25c1.3,0,2.35,1.05,2.35,2.35l0,0c0,1.3-1.05,2.35-2.35,2.35h-27.25
		c-1.3,0-2.35-1.05-2.35-2.35l0,0C906.37,416.95,907.42,415.9,908.72,415.9z"/>
	<path id="Path_81_2_" class="st11" d="M933.62,359.51h11.28v11.28C944.9,364.56,939.85,359.51,933.62,359.51z"/>
	<path id="Path_82_2_" class="st11" d="M894.15,359.51h-11.28v11.28C882.88,364.56,887.92,359.51,894.15,359.51z"/>
	<path id="Rectangle_35_4_" class="st3" d="M1068.48,357.86h54.51c2.08,0,3.76,1.68,3.76,3.76v105.25c0,2.08-1.68,3.76-3.76,3.76
		h-54.51c-2.08,0-3.76-1.68-3.76-3.76V361.62C1064.72,359.54,1066.4,357.86,1068.48,357.86z"/>
	<circle id="Ellipse_8_4_" class="st6" cx="1113.95" cy="422.87" r="6.11"/>
	<path id="Rectangle_56_4_" class="st6" d="M1100.78,425.16l-27.25-0.13c-1.3-0.01-2.34-1.06-2.34-2.36l0,0
		c0.01-1.3,1.06-2.34,2.36-2.34l27.25,0.13c1.3,0.01,2.34,1.06,2.34,2.36l0,0C1103.14,424.12,1102.08,425.17,1100.78,425.16z"/>
	<circle id="Ellipse_9_4_" class="st6" cx="1114.06" cy="399.38" r="6.11"/>
	<path id="Rectangle_57_4_" class="st6" d="M1100.89,401.67l-27.25-0.13c-1.3-0.01-2.34-1.06-2.34-2.36l0,0
		c0.01-1.3,1.06-2.34,2.36-2.34l27.25,0.13c1.3,0.01,2.34,1.06,2.34,2.36l0,0C1103.24,400.63,1102.19,401.67,1100.89,401.67z"/>
	<circle id="Ellipse_10_4_" class="st6" cx="1114.17" cy="375.89" r="6.11"/>
	<path id="Rectangle_58_4_" class="st6" d="M1101,378.17l-27.25-0.13c-1.3-0.01-2.34-1.06-2.34-2.36l0,0
		c0.01-1.3,1.06-2.34,2.36-2.34l27.25,0.13c1.3,0.01,2.34,1.06,2.34,2.36l0,0C1103.35,377.13,1102.3,378.18,1101,378.17z"/>
</g>
</svg>
