<?xml version="1.0" encoding="utf-8"?>
<!-- Generator: Adobe Illustrator 24.1.2, SVG Export Plug-In . SVG Version: 6.00 Build 0)  -->
<svg version="1.1" id="Layer_1" xmlns="http://www.w3.org/2000/svg" xmlns:xlink="http://www.w3.org/1999/xlink" x="0px" y="0px"
	 viewBox="0 0 1296 479" style="enable-background:new 0 0 1296 479;" xml:space="preserve">
<style type="text/css">
	.st0{fill:none;stroke:#EBF1FF;}
	.st1{fill:#FFFFFF;}
	.st2{fill:#E6EAF5;}
	.st3{fill:#F9EDF1;}
	.st4{fill:#EDEDED;}
	.st5{fill:#EAE7E5;}
	.st6{fill:#E2E2E2;}
	.st7{fill:#F8FAFF;}
	.st8{fill:#EAEAEA;}
	.st9{fill:#F9EDED;}
	.st10{fill:#F4D9E2;}
	.st11{opacity:0.5;fill:#E6EAF5;enable-background:new    ;}
	.st12{fill:none;stroke:#F8FAFF;stroke-linecap:round;stroke-linejoin:round;}
	.st13{fill:#EDEDEF;}
	.st14{fill:#F2F2F0;}
	.st15{fill:#DBD9DB;}
	.st16{fill:#7B88A8;}
	.st17{fill:#FAFAFA;}
	.st18{fill:#F2CCD7;}
	.st19{opacity:0.5;fill:#EDEDED;enable-background:new    ;}
</style>
<g id="Pattern" transform="translate(-282 -1822)">
	<g id="Group_12">
		<path id="Path_31" class="st0" d="M1626.66,2315.08c59.53,78.82,16.4,133.31,14.17,198.73c-2.38,69.61,45.44,163.96-27.65,195.82
			c-74.48,32.47-214.91,13.54-345.67-33.07c-119.35-42.55-193.34-141.52-308.33-200.07c-139.56-71.07-312.75-80.72-422.13-171.88
			c-109.84-91.53-133.34-197.16-99.47-262.79c32.09-62.18,182.98-40.64,270.24-68.14c88.31-27.83,108.63-120.84,242.98-93.57
			c134.15,27.23,253.7,139.99,377.15,219.44C1436.55,2169.46,1566.15,2234.98,1626.66,2315.08z"/>
		<path id="Path_32" class="st0" d="M1553.73,2313c51.76,68.53,14.26,115.89,12.32,172.77c-2.07,60.52,39.5,142.55-24.04,170.25
			c-64.75,28.23-186.84,11.77-300.52-28.76c-103.76-36.99-168.09-123.03-268.06-173.93c-121.34-61.79-271.9-70.18-367-149.43
			c-95.49-79.57-115.92-171.42-86.48-228.47c27.9-54.06,159.08-35.33,234.95-59.24c76.78-24.19,94.44-105.05,211.24-81.35
			c116.63,23.67,220.57,121.71,327.89,190.78C1388.45,2186.4,1501.12,2243.36,1553.73,2313z"/>
		<path id="Path_33" class="st0" d="M1486.12,2311.07c44.55,58.99,12.28,99.76,10.61,148.71c-1.78,52.1,34,122.7-20.69,146.54
			c-55.74,24.3-160.83,10.13-258.68-24.75c-89.31-31.84-144.68-105.9-230.73-149.72c-104.43-53.17-234.03-60.4-315.89-128.61
			c-82.2-68.49-99.78-147.55-74.44-196.65c24.01-46.53,136.93-30.42,202.23-50.99c66.09-20.82,81.29-90.42,181.82-70.02
			c100.39,20.38,189.85,104.76,282.23,164.21C1343.86,2202.1,1440.84,2251.13,1486.12,2311.07z"/>
		<path id="Path_34" class="st0" d="M1415.72,2309.07c37.04,49.05,10.21,82.95,8.82,123.66c-1.48,43.32,28.27,102.02-17.21,121.85
			c-46.34,20.2-133.72,8.42-215.09-20.58c-74.26-26.48-120.3-88.06-191.85-124.49c-86.84-44.22-194.6-50.23-262.67-106.95
			c-68.35-56.95-82.97-122.69-61.9-163.52c19.97-38.69,113.86-25.29,168.16-42.4c54.95-17.31,67.59-75.19,151.19-58.22
			c83.47,16.94,157.87,87.11,234.68,136.54C1297.43,2218.45,1378.07,2259.22,1415.72,2309.07z"/>
	</g>
</g>
<g id="Component_Page_03" transform="translate(-3907.073 2532)">
	<g id="Group_7" transform="translate(2874.073 -2983)">
		<path id="Path_93" class="st1" d="M2032.45,500.57c0-8.73-7.08-15.81-15.81-15.81h-86.97c-8.73,0-15.81,7.08-15.81,15.81v42.17
			c0,8.73,7.08,15.81,15.81,15.81h80.09c4.11,0,8.06,1.6,11.02,4.47l7.2,7c1.04,1.01,2.71,0.99,3.73-0.05
			c0.48-0.49,0.74-1.15,0.74-1.84L2032.45,500.57L2032.45,500.57z"/>
	</g>
	<path id="Rectangle_6" class="st2" d="M4806.38-2482.43h35.58c1.46,0,2.64,1.18,2.64,2.64l0,0c0,1.46-1.18,2.64-2.64,2.64h-35.58
		c-1.46,0-2.64-1.18-2.64-2.64l0,0C4803.75-2481.25,4804.93-2482.43,4806.38-2482.43z"/>
	<path id="Rectangle_7" class="st3" d="M4851.18-2482.43h12.52c1.46,0,2.64,1.18,2.64,2.64l0,0c0,1.46-1.18,2.64-2.64,2.64h-12.52
		c-1.46,0-2.64-1.18-2.64-2.64l0,0C4848.55-2481.25,4849.73-2482.43,4851.18-2482.43z"/>
	<path id="Rectangle_8" class="st4" d="M4872.93-2482.43h12.52c1.46,0,2.64,1.18,2.64,2.64l0,0c0,1.46-1.18,2.64-2.64,2.64h-12.52
		c-1.46,0-2.64-1.18-2.64-2.64l0,0C4870.29-2481.25,4871.47-2482.43,4872.93-2482.43z"/>
	<path id="Rectangle_9" class="st2" d="M4806.38-2470.57h47.44c1.46,0,2.64,1.18,2.64,2.64l0,0c0,1.46-1.18,2.64-2.64,2.64h-47.44
		c-1.46,0-2.64-1.18-2.64-2.64l0,0C4803.75-2469.39,4804.93-2470.57,4806.38-2470.57z"/>
	<path id="Rectangle_10" class="st2" d="M4863.04-2470.57h17.13c1.46,0,2.64,1.18,2.64,2.64l0,0c0,1.46-1.18,2.64-2.64,2.64h-17.13
		c-1.46,0-2.64-1.18-2.64-2.64l0,0C4860.41-2469.39,4861.59-2470.57,4863.04-2470.57z"/>
	<path id="Rectangle_11" class="st5" d="M4806.38-2458.71h6.59c1.46,0,2.64,1.18,2.64,2.64l0,0c0,1.46-1.18,2.64-2.64,2.64h-6.59
		c-1.46,0-2.64-1.18-2.64-2.64l0,0C4803.75-2457.53,4804.93-2458.71,4806.38-2458.71z"/>
	<path id="Rectangle_12" class="st6" d="M4822.2-2458.71h23.72c1.46,0,2.64,1.18,2.64,2.64l0,0c0,1.46-1.18,2.64-2.64,2.64h-23.72
		c-1.46,0-2.64-1.18-2.64-2.64l0,0C4819.56-2457.53,4820.74-2458.71,4822.2-2458.71z"/>
	<path id="Rectangle_13" class="st4" d="M4855.14-2458.71h35.58c1.46,0,2.64,1.18,2.64,2.64l0,0c0,1.46-1.18,2.64-2.64,2.64h-35.58
		c-1.46,0-2.64-1.18-2.64-2.64l0,0C4852.5-2457.53,4853.68-2458.71,4855.14-2458.71z"/>
	<path id="Rectangle_14" class="st2" d="M4806.38-2446.85h21.74c1.46,0,2.64,1.18,2.64,2.64l0,0c0,1.46-1.18,2.64-2.64,2.64h-21.74
		c-1.46,0-2.64-1.18-2.64-2.64l0,0C4803.75-2445.67,4804.93-2446.85,4806.38-2446.85z"/>
	<path id="Rectangle_15" class="st2" d="M4837.35-2446.85h26.35c1.46,0,2.64,1.18,2.64,2.64l0,0c0,1.46-1.18,2.64-2.64,2.64h-26.35
		c-1.46,0-2.64-1.18-2.64-2.64l0,0C4834.71-2445.67,4835.89-2446.85,4837.35-2446.85z"/>
	<path id="Rectangle_16" class="st2" d="M4872.93-2446.85h12.52c1.46,0,2.64,1.18,2.64,2.64l0,0c0,1.46-1.18,2.64-2.64,2.64h-12.52
		c-1.46,0-2.64-1.18-2.64-2.64l0,0C4870.29-2445.67,4871.47-2446.85,4872.93-2446.85z"/>
</g>
<g id="Component_Page_04" transform="translate(-3360.073 2385)">
	<g id="Group_10" transform="translate(2874.073 -2983)">
		<path id="Rectangle_22" class="st1" d="M814.83,721.79h106.65c3.37,0,6.09,2.73,6.09,6.09v52.31c0,3.37-2.73,6.09-6.09,6.09
			H814.83c-3.37,0-6.09-2.73-6.09-6.09v-52.31C808.74,724.52,811.47,721.79,814.83,721.79z"/>
	</g>
	<path id="Rectangle_23" class="st7" d="M3690.94-2255.12h102.59c1.12,0,2.03,0.91,2.03,2.03v48.24c0,1.12-0.91,2.03-2.03,2.03
		h-102.59c-1.12,0-2.03-0.91-2.03-2.03v-48.24C3688.91-2254.21,3689.82-2255.12,3690.94-2255.12z"/>
	<g id="Group_11" transform="translate(2874.073 -2983)">
		<path id="Rectangle_24" class="st1" d="M873.24,733.98h40.12c1.12,0,2.03,0.91,2.03,2.03v36.05c0,1.12-0.91,2.03-2.03,2.03h-40.12
			c-1.12,0-2.03-0.91-2.03-2.03v-36.05C871.21,734.89,872.11,733.98,873.24,733.98z"/>
	</g>
	<path id="Path_100" class="st8" d="M3775.11-2232.38c3.57,3.57,3.57,9.36,0,12.93c-3.57,3.57-9.36,3.57-12.93,0
		c-3.57-3.57-3.57-9.36,0-12.93S3771.54-2235.95,3775.11-2232.38L3775.11-2232.38z"/>
	<path id="Path_101" class="st9" d="M3760.02-2217.29c3.94,3.94,10.05,4.71,14.84,1.87c1.45-0.86,1.43-2.83,0.24-4.02l-15.08-15.08
		C3755.26-2229.77,3755.26-2222.06,3760.02-2217.29C3760.02-2217.3,3760.02-2217.3,3760.02-2217.29z"/>
	<path id="Path_102" class="st10" d="M3759.12-2235.58c-4.98,4.79-5.28,12.47-0.69,17.61c0.35,0.38,0.96,0.42,1.36,0.07
		c0.02-0.01,0.04-0.03,0.06-0.05l16.16-15.56c1.19-1.15,1.2-3.04-0.22-3.9C3770.46-2240.6,3763.56-2239.84,3759.12-2235.58z"/>
	<path id="Path_103" class="st1" d="M3772.23-2229.5c1.98,1.98,1.98,5.2,0,7.18c-1.98,1.98-5.2,1.98-7.18,0
		c-1.98-1.98-1.98-5.2,0-7.18l0,0C3767.03-2231.49,3770.25-2231.49,3772.23-2229.5z"/>
	<path id="Rectangle_25" class="st2" d="M3767.63-2226.93h2.03c0.56,0,1.02,0.45,1.02,1.02l0,0c0,0.56-0.45,1.02-1.02,1.02h-2.03
		c-0.56,0-1.02-0.45-1.02-1.02l0,0C3766.61-2226.48,3767.07-2226.93,3767.63-2226.93z"/>
	<path id="Rectangle_26" class="st2" d="M3749.34-2245.98h12.44c0.56,0,1.02,0.45,1.02,1.02l0,0c0,0.56-0.45,1.02-1.02,1.02h-12.44
		c-0.56,0-1.02-0.45-1.02-1.02l0,0C3748.33-2245.52,3748.78-2245.98,3749.34-2245.98z"/>
	<path id="Rectangle_27" class="st11" d="M3782.1-2245.98h3.3c0.56,0,1.02,0.45,1.02,1.02l0,0c0,0.56-0.45,1.02-1.02,1.02h-3.3
		c-0.56,0-1.02-0.45-1.02-1.02l0,0C3781.08-2245.52,3781.54-2245.98,3782.1-2245.98z"/>
	<g id="Group_13" transform="translate(2874.073 -2983)">
		<path id="Rectangle_28" class="st1" d="M822.96,733.98h40.12c1.12,0,2.03,0.91,2.03,2.03v36.05c0,1.12-0.91,2.03-2.03,2.03h-40.12
			c-1.12,0-2.03-0.91-2.03-2.03v-36.05C820.93,734.89,821.84,733.98,822.96,733.98z"/>
	</g>
	<path id="Rectangle_29" class="st2" d="M3699.07-2245.98h20.32c0.56,0,1.02,0.45,1.02,1.02l0,0c0,0.56-0.45,1.02-1.02,1.02h-20.32
		c-0.56,0-1.02-0.45-1.02-1.02l0,0C3698.05-2245.52,3698.51-2245.98,3699.07-2245.98z"/>
	<path id="Rectangle_30" class="st11" d="M3731.82-2245.98h3.3c0.56,0,1.02,0.45,1.02,1.02l0,0c0,0.56-0.45,1.02-1.02,1.02h-3.3
		c-0.56,0-1.02-0.45-1.02-1.02l0,0C3730.81-2245.52,3731.26-2245.98,3731.82-2245.98z"/>
	<line id="Line_2" class="st12" x1="3698.18" y1="-2213.09" x2="3736.01" y2="-2213.09"/>
	<line id="Line_3" class="st12" x1="3697.92" y1="-2213.09" x2="3697.92" y2="-2239.76"/>
	<path id="Path_104" class="st13" d="M3702.11-2235.31c0-1.12,0.91-2.03,2.03-2.03h4.83c1.12,0,2.03,0.91,2.03,2.03v22.09h-8.89
		L3702.11-2235.31L3702.11-2235.31z"/>
	<path id="Path_105" class="st14" d="M3713.54-2220.08c0-1.12,0.91-2.03,2.03-2.03h4.83c1.12,0,2.03,0.91,2.03,2.03v6.85h-8.89
		L3713.54-2220.08L3713.54-2220.08z"/>
	<path id="Path_106" class="st15" d="M3725.22-2231.5c0-1.12,0.91-2.03,2.03-2.03h4.83c1.12,0,2.03,0.91,2.03,2.03v18.28h-8.89
		L3725.22-2231.5L3725.22-2231.5z"/>
</g>
<g id="Component_Page_01" transform="translate(-3076.073 2522)">
	<g id="Group_5" transform="translate(2874.073 -2983)">
		<path id="Rectangle_3" class="st1" d="M471.81,464.44h116.68c8.79,0,15.91,7.12,15.91,15.91v67.62c0,8.79-7.12,15.91-15.91,15.91
			H471.81c-8.79,0-15.91-7.12-15.91-15.91v-67.62C455.89,471.56,463.02,464.44,471.81,464.44z"/>
	</g>
	<path id="Path_71" class="st2" d="M3356.49-2433.7c4.76,0,8.62-3.86,8.62-8.62s-3.86-8.62-8.62-8.62s-8.62,3.86-8.62,8.62l0,0
		C3347.87-2437.56,3351.73-2433.7,3356.49-2433.7z"/>
	<path id="Path_72" class="st16" d="M3354.81-2444.12l-2.29-1.86c-0.23-0.19-0.57-0.15-0.76,0.08c-0.19,0.23-0.15,0.57,0.08,0.76
		l0,0l1.11,0.9c-0.76,0.47-0.99,1.46-0.52,2.22c0.47,0.76,1.46,0.99,2.22,0.52c0.76-0.47,0.99-1.46,0.52-2.22
		C3355.07-2443.86,3354.95-2444,3354.81-2444.12z"/>
	<path id="Path_73" class="st17" d="M3353.79-2442.32c-0.3,0.01-0.55-0.22-0.56-0.52c-0.01-0.3,0.22-0.55,0.52-0.56
		c0.01,0,0.03,0,0.04,0c0.12,0,0.24,0.04,0.34,0.12l0,0c0.23,0.19,0.27,0.53,0.08,0.76
		C3354.11-2442.4,3353.95-2442.32,3353.79-2442.32L3353.79-2442.32z"/>
	<path id="Path_74" class="st16" d="M3361.21-2445.89c-0.19-0.23-0.52-0.27-0.76-0.08c0,0,0,0,0,0l-2.29,1.86
		c-0.7,0.56-0.81,1.58-0.26,2.28c0.56,0.7,1.58,0.81,2.28,0.26s0.81-1.58,0.26-2.28c-0.12-0.15-0.26-0.27-0.42-0.37l1.11-0.9
		C3361.36-2445.32,3361.4-2445.66,3361.21-2445.89C3361.22-2445.89,3361.21-2445.89,3361.21-2445.89z"/>
	<path id="Path_75" class="st17" d="M3359.18-2443.4c0.3,0,0.54,0.24,0.54,0.54c0,0.3-0.24,0.54-0.54,0.54
		c-0.3,0-0.54-0.24-0.54-0.54c0-0.16,0.07-0.32,0.2-0.42C3358.94-2443.36,3359.06-2443.4,3359.18-2443.4z"/>
	<path id="Path_76" class="st16" d="M3359.18-2436.94c-0.14,0-0.27-0.05-0.37-0.15c-1.3-1.24-3.34-1.24-4.64,0
		c-0.22,0.2-0.56,0.18-0.76-0.04c-0.19-0.21-0.18-0.54,0.02-0.74c1.72-1.64,4.41-1.64,6.13,0c0.22,0.21,0.22,0.55,0.02,0.76
		C3359.46-2437,3359.32-2436.94,3359.18-2436.94L3359.18-2436.94z"/>
	<path id="Path_77" class="st2" d="M3379.03-2433.7c4.76,0,8.62-3.86,8.62-8.62s-3.86-8.62-8.62-8.62s-8.62,3.86-8.62,8.62l0,0
		C3370.41-2437.56,3374.27-2433.7,3379.03-2433.7z"/>
	<path id="Path_78" class="st16" d="M3382.45-2437.67c-0.14,0-0.28-0.06-0.38-0.16c-1.71-1.63-4.39-1.63-6.09,0
		c-0.21,0.21-0.55,0.21-0.76,0c-0.21-0.21-0.21-0.55,0-0.76l0,0c2.1-2.1,5.51-2.1,7.62,0c0,0,0,0,0,0c0.21,0.21,0.21,0.55,0,0.76
		C3382.73-2437.73,3382.6-2437.67,3382.45-2437.67z"/>
	<path id="Path_79" class="st16" d="M3375.79-2443.4c0.59,0,1.08-0.48,1.08-1.08s-0.48-1.08-1.08-1.08s-1.08,0.48-1.08,1.08
		C3374.72-2443.88,3375.2-2443.4,3375.79-2443.4z"/>
	<path id="Path_80" class="st16" d="M3382.26-2443.4c0.59,0,1.08-0.48,1.08-1.08s-0.48-1.08-1.08-1.08s-1.08,0.48-1.08,1.08
		C3381.18-2443.88,3381.66-2443.4,3382.26-2443.4z"/>
	<path id="Path_81" class="st2" d="M3401.57-2433.7c4.76,0,8.62-3.86,8.62-8.62s-3.86-8.62-8.62-8.62s-8.62,3.86-8.62,8.62l0,0
		C3392.95-2437.56,3396.81-2433.7,3401.57-2433.7z"/>
	<path id="Path_82" class="st16" d="M3398.33-2443.4c0.59,0,1.08-0.48,1.08-1.08s-0.48-1.08-1.08-1.08s-1.08,0.48-1.08,1.08
		C3397.26-2443.88,3397.74-2443.4,3398.33-2443.4z"/>
	<path id="Path_83" class="st16" d="M3404.8-2443.4c0.59,0,1.08-0.48,1.08-1.08s-0.48-1.08-1.08-1.08s-1.08,0.48-1.08,1.08
		C3403.72-2443.88,3404.2-2443.4,3404.8-2443.4z"/>
	<path id="Path_84" class="st16" d="M3404.26-2438.01h-5.39c-0.3,0.01-0.55-0.22-0.56-0.52c-0.01-0.3,0.22-0.55,0.52-0.56
		c0.01,0,0.03,0,0.04,0h5.39c0.3-0.01,0.55,0.22,0.56,0.52c0.01,0.3-0.22,0.55-0.52,0.56
		C3404.28-2438.01,3404.27-2438.01,3404.26-2438.01z"/>
	<path id="Path_85" class="st2" d="M3424.11-2433.7c4.76,0,8.62-3.86,8.62-8.62s-3.86-8.62-8.62-8.62s-8.62,3.86-8.62,8.62l0,0
		C3415.49-2437.56,3419.35-2433.7,3424.11-2433.7z"/>
	<path id="Path_86" class="st16" d="M3424.11-2436.94c-1.43,0-2.8-0.56-3.81-1.58c-0.23-0.19-0.25-0.53-0.06-0.76
		c0.19-0.23,0.53-0.25,0.76-0.06c0.02,0.02,0.04,0.04,0.06,0.06c1.71,1.63,4.39,1.63,6.09,0c0.21-0.21,0.55-0.21,0.76,0
		c0.21,0.21,0.21,0.55,0,0.76C3426.9-2437.5,3425.53-2436.93,3424.11-2436.94z"/>
	<path id="Path_87" class="st16" d="M3421.95-2443.4h-2.15c-0.3-0.01-0.53-0.26-0.52-0.56c0.01-0.28,0.24-0.51,0.52-0.52h2.15
		c0.3,0.01,0.53,0.26,0.52,0.56C3422.46-2443.64,3422.23-2443.41,3421.95-2443.4z"/>
	<path id="Path_88" class="st16" d="M3427.34-2443.4c0.59,0,1.08-0.48,1.08-1.08s-0.48-1.08-1.08-1.08s-1.08,0.48-1.08,1.08
		C3426.26-2443.88,3426.74-2443.4,3427.34-2443.4z"/>
	<g id="Group_6" transform="translate(2874.073 -2983)">
		<path id="Path_89" class="st18" d="M579.2,551.95c7.32,0,13.26-5.94,13.26-13.26c0-7.32-5.94-13.26-13.26-13.26
			s-13.26,5.94-13.26,13.26C565.94,546.01,571.88,551.95,579.2,551.95z"/>
		<path id="Path_90" class="st1" d="M586.64,536.22c-0.46,0-0.83-0.37-0.83-0.83c0-0.92-0.74-1.66-1.66-1.66
			c-0.92,0-1.66,0.74-1.66,1.66c0,0.46-0.37,0.83-0.83,0.83c-0.46,0-0.83-0.37-0.83-0.83c0-1.83,1.48-3.31,3.31-3.31
			c1.83,0,3.31,1.48,3.31,3.31C587.47,535.85,587.1,536.22,586.64,536.22C586.65,536.22,586.64,536.22,586.64,536.22z"/>
		<path id="Path_91" class="st1" d="M576.7,536.22c-0.46,0-0.83-0.37-0.83-0.83c0-0.92-0.74-1.66-1.66-1.66s-1.66,0.74-1.66,1.66
			c0,0.46-0.37,0.83-0.83,0.83c-0.46,0-0.83-0.37-0.83-0.83c0-1.83,1.48-3.31,3.31-3.31s3.31,1.48,3.31,3.31
			C577.53,535.85,577.16,536.22,576.7,536.22C576.7,536.22,576.7,536.22,576.7,536.22z"/>
		<path id="Path_92" class="st1" d="M588.62,540.69c-0.16-0.21-0.4-0.33-0.66-0.33h-17.54c-0.46,0-0.83,0.38-0.83,0.84
			c0,0.07,0.01,0.15,0.03,0.22c1.5,5.28,6.99,8.35,12.27,6.86c3.32-0.94,5.92-3.54,6.86-6.86
			C588.82,541.17,588.77,540.9,588.62,540.69z"/>
	</g>
	<path id="Rectangle_4" class="st19" d="M3371.07-2480.11h66.29c1.46,0,2.65,1.19,2.65,2.65l0,0c0,1.46-1.19,2.65-2.65,2.65h-66.29
		c-1.46,0-2.65-1.19-2.65-2.65l0,0C3368.42-2478.92,3369.61-2480.11,3371.07-2480.11z"/>
	<path id="Rectangle_5" class="st19" d="M3379.03-2469.5h50.38c1.46,0,2.65,1.19,2.65,2.65l0,0c0,1.46-1.19,2.65-2.65,2.65h-50.38
		c-1.46,0-2.65-1.19-2.65-2.65l0,0C3376.37-2468.32,3377.56-2469.5,3379.03-2469.5z"/>
</g>
<g>
</g>
<g>
	<path class="st2" d="M652.45,137.02c-3.53-1.68-7.46-2.37-10.87-4.43c-0.56-0.32-1.5,0.16-1.25,0.85
		c1.34,3.93,1.85,8.16,3.68,11.92c0.35,0.69,1.61,0.57,1.56-0.31c-0.08-1.31,0.08-2.55,0.15-3.9c3.82,4.45,7.85,8.71,10.97,13.7
		c1.69,2.69,3.51,5.83,3.44,9.11c-0.11,3.95-4.37,4.31-7.27,3.34c-2.51-0.85-10.9-6.79-11.91-1.2c-0.61,3.3,0.76,5.83,2.21,8.66
		c0.44,0.8,0.74,1.63,0.93,2.46c0.8,3.23-3.92,1.05-4.74,0.24c-1.65-1.63-2.74-3.86-3.85-5.9c-0.3-0.64-1.25-0.16-0.99,0.53
		c1.23,3.2,3.62,8.39,7.67,8.51c3.52,0.04,4.09-2.59,2.98-5.35c-0.73-1.82-5.65-11.15-0.23-9.62c3.57,1.01,6.48,3.43,10.22,4.01
		c2.64,0.38,5.23-1.32,6.32-3.68c1.26-2.88-0.39-6.54-1.65-9.06c-3.2-6.3-8.13-11.77-12.98-16.84c1.95-0.29,4-0.76,5.82-1.48
		C653.35,138.22,653.01,137.24,652.45,137.02z M644.22,141.13c-0.62-2.01-1.09-4.16-1.66-6.22c2.36,1.09,4.73,1.79,7.2,2.69
		c-1.66,0.3-3.35,0.45-4.66,1.35c-0.3,0.18-0.36,0.51-0.28,0.81C644.51,140.13,644.29,140.6,644.22,141.13z"/>
</g>
<g>
	<g transform="translate(0.000000,511.000000) scale(0.100000,-0.100000)">
		<path class="st2" d="M8581.12,3839.18c-6.24-2.7-5.86,5.86-5.94-127.97c-0.06-108.06,0.12-121.37,1.42-123.88
			c2.79-5.4,3.35-5.49,52.69-5.52l44.97-0.02l9.97,9.95l10.06,10.04l10.05-10.06l9.96-9.96l164.15-0.09
			c139.75-0.08,164.61,0.09,167.31,1.21c6.52,2.7,6.05-6.24,6.12,128.06s0.54,125.37-5.98,128.07c-2.7,1.12-27.56,1.32-167.31,1.39
			l-164.15,0.09l-9.97-9.95l-10.06-10.05l-10.05,10.06l-9.96,9.96l-45.16,0.02C8592.85,3840.48,8583.54,3840.29,8581.12,3839.18z
			 M8680.64,3806.36l13.77-13.78l13.79,13.77l13.7,13.68l155.3-0.08l155.21-0.08l-0.06-108.89l-0.06-108.89l-155.22,0.08
			l-155.3,0.08l-13.68,13.69l-13.77,13.78l-13.78-13.76l-13.7-13.68l-36.12,0.02l-36.04,0.02l0.06,108.89l0.06,108.89l36.03-0.02
			l36.12-0.02L8680.64,3806.36z"/>
		<path class="st18" d="M8821.5,3788.6c-11.36-4.09-19.09-11.07-24.03-21.48c-3.64-7.72-4.57-19.17-2.16-27.27
			c2.14-7.73,8-15.92,14.51-20.76c7.91-5.78,13.4-7.54,24.3-7.55c8.38,0,9.22,0.18,15.83,3.43c13.13,6.51,21.89,18.88,22.92,32.56
			c1.31,16.66-7.71,32.11-22.79,39.2c-5.4,2.52-7.45,2.98-15.08,3.17C8828.29,3790.18,8825.04,3789.81,8821.5,3788.6z
			 M8842.34,3768.21c12.28-6.15,14.61-21.32,4.73-31.09c-9.78-9.86-24.95-7.52-31.1,4.76c-4.09,8.38-2.88,16.29,3.65,22.8
			C8826.05,3771.1,8833.96,3772.31,8842.34,3768.21z"/>
		<path class="st18" d="M8937.88,3789.1c-2.89-1.58-141.04-139.62-142.63-142.42c-3.54-6.7,0.55-14.7,7.53-14.71
			c1.86,0,4.28,0.46,5.4,1.02c2.88,1.49,141.13,139.34,142.81,142.42c3.63,6.79-0.55,14.7-7.72,14.71
			C8941.33,3790.12,8938.9,3789.65,8937.88,3789.1z"/>
		<path class="st2" d="M8690.03,3779.46c-3.63-1.77-6.24-6.88-5.41-10.61c0.74-3.44,4.47-7.17,7.91-7.92
			c3.82-0.84,8.84,1.77,10.62,5.58c0.84,1.67,1.49,3.53,1.49,4.19c0,2.79-3.16,7.45-6.05,8.75
			C8694.77,3781.32,8693.75,3781.32,8690.03,3779.46z"/>
		<path class="st2" d="M8689.16,3739.16c-3.35-2.05-5.4-6.98-4.48-10.7c0.28-1.3,1.86-3.44,3.35-4.75
			c5.21-4.38,12.94-2.43,15.65,4.09c2.33,5.77-2.88,13.13-9.3,13.13C8693.07,3740.93,8690.75,3740.09,8689.16,3739.16z"/>
		<path class="st18" d="M8903.67,3710.1c-16.2-4.09-29.06-19.16-30.28-35.54c-1.31-16.94,7.15-31.46,22.89-39.2
			c5.77-2.79,6.7-2.98,16.39-2.99c10.05-0.01,10.52,0.09,17.32,3.43c13.5,6.69,21.42,18.6,22.08,33.4c0.47,10.05-1.2,16.19-6.6,24.2
			c-4.56,6.89-11.08,12.1-18.34,14.9C8921.36,3710.55,8909.07,3711.49,8903.67,3710.1z M8923.12,3688.13
			c10.8-6.24,12.56-21.69,3.43-30.71c-6.34-6.42-14.34-7.63-22.63-3.53c-12.1,6.06-14.61,21.97-4.92,31.37
			C8905.61,3691.76,8915.01,3692.78,8923.12,3688.13z"/>
		<path class="st2" d="M8688.03,3698.58c-3.54-2.98-4.47-6.7-2.61-10.98c1.39-3.44,5.4-6.24,8.94-6.24c5.77,0,10.99,6.51,9.78,12.19
			c-0.83,3.91-5.4,7.36-9.77,7.36C8691.84,3700.91,8689.89,3700.17,8688.03,3698.58z"/>
		<path class="st2" d="M8689.96,3660.33c-3.63-1.77-6.24-6.89-5.41-10.61c0.74-3.44,4.47-7.17,7.91-7.92
			c3.82-0.84,8.84,1.77,10.62,5.58c0.84,1.67,1.49,3.53,1.49,4.19c0,2.79-3.16,7.45-6.05,8.75
			C8694.71,3662.19,8693.68,3662.19,8689.96,3660.33z"/>
	</g>
</g>
</svg>
