<?xml version="1.0" encoding="utf-8"?>
<!-- Generator: Adobe Illustrator 24.1.2, SVG Export Plug-In . SVG Version: 6.00 Build 0)  -->
<svg version="1.1" id="Layer_1" xmlns="http://www.w3.org/2000/svg" xmlns:xlink="http://www.w3.org/1999/xlink" x="0px" y="0px"
	 viewBox="0 0 713.96 281.99" style="enable-background:new 0 0 713.96 281.99;" xml:space="preserve">
<style type="text/css">
	.st0{fill:#E40A4F;}
	.st1{fill:#2D3958;}
</style>
<path class="st0" d="M87.75,208.8h-0.37c-5.99,0.21-11.71-2.47-15.38-7.21l0,0c-2.97-3.93-4.65-8.67-4.83-13.59
	c-0.11-2.02,0.1-4.05,0.63-6c0-0.06,0-0.12,0-0.18s0,0,0,0c1.62-6.57,2.89-7.33,6.21-17.74c0.11-0.36,0.23-0.71,0.34-1.07
	c4.36-13.9,7.46-28.5,2.38-37.14l16.31,14.5c6.31,6.35,8.34,13.3,6.17,20.81l-4,19.16l-2.11,8.94c-1.36,8.64,0.55,16,55.41-10.37
	c-2.27,1.85-40.59,23.24-43.44,24.79l0,0C99.65,206.63,93.48,208.72,87.75,208.8z"/>
<path class="st0" d="M160.06,171L160.06,171c0.36-0.39,8.93-10.09-0.32-20.66c-1.82-2.09-3.9-4.22-6.16-6.36
	c-16.41-15.51-43-31.48-62.35-37.86c-15-5-25.72-4.13-23.81,7.29C57.59,96,70.4,73.9,99.84,82.63c20.17,6,43.86,21.49,60.51,34.4
	h0.05l0,0c5.78,4.41,11.33,9.14,16.6,14.15c0.32,0.31,0.63,0.6,0.91,0.9c2.12,2.03,3.74,4.54,4.71,7.31l0.13,0.35
	c0.21,0.65,0.36,1.32,0.45,2c0,0.32,0.08,0.66,0.11,1s0.06,0.82,0.06,1.21v0.12c0,0.41,0,0.82-0.07,1.22s-0.07,0.67-0.12,1
	c-0.11,0.67-0.27,1.34-0.46,2c0,0.12-0.09,0.25-0.13,0.36c-1.01,2.76-2.64,5.25-4.77,7.27c-1.8,1.78-4.21,4-7.11,6.46l-0.6,0.51
	c-2.79,2.31-5.69,4.65-8.7,7c-0.37,0.28-0.74,0.56-1.09,0.85C160.22,170.81,160.13,170.9,160.06,171z"/>
<g>
	<path class="st1" d="M249.26,152.75h-25.98c-0.85,2.86-1.76,5.84-2.73,8.93c-0.97,3.09-1.76,5.65-2.38,7.66
		c-0.77,0.31-1.61,0.58-2.49,0.81c-0.89,0.23-1.99,0.35-3.31,0.35c-2.63,0-4.68-0.52-6.15-1.57c-1.47-1.04-2.2-2.53-2.2-4.47
		c0-0.93,0.13-1.84,0.41-2.73c0.27-0.89,0.6-1.91,0.99-3.07c0.62-2.16,1.45-4.77,2.49-7.83c1.04-3.05,2.16-6.38,3.36-9.98
		c1.2-3.6,2.49-7.31,3.89-11.14c1.39-3.83,2.73-7.54,4-11.14c1.28-3.6,2.51-6.96,3.71-10.09c1.2-3.13,2.22-5.82,3.07-8.06
		c1-0.54,2.49-1.08,4.47-1.62c1.97-0.54,3.96-0.81,5.97-0.81c2.71,0,5.18,0.41,7.42,1.22c2.24,0.81,3.67,2.11,4.29,3.89
		c1.55,4.25,3.25,9.15,5.1,14.67c1.86,5.53,3.73,11.23,5.63,17.11c1.89,5.88,3.73,11.64,5.51,17.28c1.78,5.65,3.36,10.71,4.76,15.2
		c-0.77,0.85-1.84,1.57-3.19,2.15c-1.35,0.58-2.96,0.87-4.81,0.87c-2.71,0-4.62-0.48-5.74-1.45c-1.12-0.97-1.99-2.49-2.61-4.58
		L249.26,152.75z M236.26,111.22c-0.7,1.93-1.45,4.1-2.26,6.5c-0.81,2.4-1.66,4.89-2.55,7.48c-0.89,2.59-1.8,5.22-2.73,7.89
		c-0.93,2.67-1.82,5.28-2.67,7.83h20.18l-9.4-29.7H236.26z"/>
	<path class="st1" d="M299.37,170.96c-2.24,0-4.31-0.21-6.21-0.64c-1.9-0.43-3.62-0.95-5.16-1.57v21.34
		c-0.7,0.15-1.62,0.35-2.78,0.58c-1.16,0.23-2.48,0.35-3.94,0.35c-2.71,0-4.72-0.5-6.03-1.51c-1.32-1.01-1.97-2.78-1.97-5.34v-58.81
		c0-1.86,0.37-3.36,1.1-4.52c0.73-1.16,1.91-2.24,3.54-3.25c2.24-1.31,5.03-2.45,8.35-3.42c3.32-0.97,7.08-1.45,11.25-1.45
		c4.25,0,8.18,0.56,11.77,1.68c3.6,1.12,6.71,2.86,9.34,5.22c2.63,2.36,4.68,5.36,6.15,8.99c1.47,3.64,2.21,7.97,2.21,12.99
		c0,4.87-0.7,9.13-2.09,12.76c-1.39,3.64-3.31,6.69-5.74,9.16c-2.44,2.48-5.34,4.33-8.7,5.57
		C307.08,170.34,303.39,170.96,299.37,170.96z M297.16,159.25c4.64,0,8.27-1.43,10.9-4.29c2.63-2.86,3.94-7.31,3.94-13.34
		c0-6.26-1.35-10.71-4.06-13.34c-2.71-2.63-6.19-3.94-10.44-3.94c-2.09,0-3.93,0.27-5.51,0.81c-1.59,0.54-2.96,1.12-4.12,1.74v29.81
		c1.24,0.77,2.61,1.39,4.12,1.86S295.23,159.25,297.16,159.25z"/>
	<path class="st1" d="M359.22,170.96c-2.24,0-4.31-0.21-6.21-0.64c-1.9-0.43-3.62-0.95-5.16-1.57v21.34
		c-0.7,0.15-1.62,0.35-2.78,0.58c-1.16,0.23-2.48,0.35-3.94,0.35c-2.71,0-4.72-0.5-6.03-1.51c-1.32-1.01-1.97-2.78-1.97-5.34v-58.81
		c0-1.86,0.37-3.36,1.1-4.52c0.73-1.16,1.91-2.24,3.54-3.25c2.24-1.31,5.03-2.45,8.35-3.42c3.32-0.97,7.08-1.45,11.25-1.45
		c4.25,0,8.18,0.56,11.77,1.68c3.6,1.12,6.71,2.86,9.34,5.22c2.63,2.36,4.68,5.36,6.15,8.99c1.47,3.64,2.2,7.97,2.2,12.99
		c0,4.87-0.7,9.13-2.09,12.76c-1.39,3.64-3.31,6.69-5.74,9.16c-2.44,2.48-5.34,4.33-8.7,5.57
		C366.94,170.34,363.24,170.96,359.22,170.96z M357.02,159.25c4.64,0,8.27-1.43,10.9-4.29c2.63-2.86,3.94-7.31,3.94-13.34
		c0-6.26-1.35-10.71-4.06-13.34c-2.71-2.63-6.19-3.94-10.44-3.94c-2.09,0-3.93,0.27-5.51,0.81c-1.59,0.54-2.96,1.12-4.12,1.74v29.81
		c1.24,0.77,2.61,1.39,4.12,1.86S355.08,159.25,357.02,159.25z"/>
	<path class="st1" d="M435.78,153.8c0,5.41-2.01,9.65-6.03,12.7c-4.02,3.05-9.9,4.58-17.63,4.58c-3.17,0-6.05-0.23-8.64-0.7
		c-2.59-0.46-4.83-1.14-6.73-2.03c-1.9-0.89-3.36-1.97-4.41-3.25c-1.04-1.28-1.57-2.69-1.57-4.23c0-1.47,0.33-2.74,0.99-3.83
		c0.66-1.08,1.53-1.97,2.61-2.67c2.16,1.39,4.66,2.63,7.48,3.71c2.82,1.08,6.09,1.62,9.8,1.62c3.17,0,5.57-0.52,7.19-1.57
		s2.44-2.49,2.44-4.35c0-3.17-2.32-5.26-6.96-6.26l-6.5-1.51c-5.72-1.31-9.96-3.29-12.7-5.92c-2.75-2.63-4.12-6.15-4.12-10.56
		c0-5.03,2.01-9.11,6.03-12.24c4.02-3.13,9.67-4.7,16.94-4.7c2.78,0,5.35,0.21,7.71,0.64c2.36,0.43,4.41,1.04,6.15,1.86
		s3.09,1.78,4.06,2.9c0.97,1.12,1.45,2.42,1.45,3.89c0,1.39-0.31,2.61-0.93,3.65c-0.62,1.04-1.35,1.88-2.2,2.49
		c-0.7-0.46-1.61-0.93-2.73-1.39c-1.12-0.46-2.36-0.89-3.71-1.28c-1.35-0.39-2.78-0.71-4.29-0.99c-1.51-0.27-3-0.41-4.47-0.41
		c-3.02,0-5.38,0.48-7.08,1.45c-1.7,0.97-2.55,2.34-2.55,4.12c0,1.32,0.48,2.4,1.45,3.25c0.97,0.85,2.65,1.55,5.05,2.09l5.68,1.39
		c6.42,1.47,11.06,3.62,13.92,6.44C434.35,145.54,435.78,149.23,435.78,153.8z"/>
	<path class="st1" d="M456.43,169.22c-0.7,0.15-1.62,0.35-2.78,0.58c-1.16,0.23-2.48,0.35-3.94,0.35c-2.71,0-4.72-0.5-6.03-1.51
		c-1.32-1-1.97-2.78-1.97-5.34v-36.77c0-2.01,0.46-3.71,1.39-5.1c0.93-1.39,2.28-2.63,4.06-3.71c2.4-1.47,5.35-2.67,8.87-3.6
		c3.52-0.93,7.33-1.39,11.43-1.39c7.35,0,11.02,2.28,11.02,6.84c0,1.08-0.17,2.11-0.52,3.07c-0.35,0.97-0.72,1.76-1.1,2.38
		c-1.78-0.39-3.98-0.58-6.61-0.58c-2.71,0-5.26,0.31-7.66,0.93c-2.4,0.62-4.45,1.39-6.15,2.32V169.22z"/>
	<path class="st1" d="M493.66,156.12c-1.86-3.87-4.06-9.09-6.61-15.66c-2.55-6.57-5.1-14.54-7.66-23.9
		c0.77-0.93,1.86-1.72,3.25-2.38c1.39-0.66,2.9-0.99,4.52-0.99c2.01,0,3.65,0.46,4.93,1.39c1.28,0.93,2.3,2.59,3.07,4.99
		c3.63,11.68,7.77,23.51,12.41,35.5h0.46c1-2.55,2.07-5.45,3.19-8.7c1.12-3.25,2.2-6.65,3.25-10.21c1.04-3.56,2.03-7.15,2.96-10.79
		c0.93-3.63,1.74-7.15,2.44-10.56c0.93-0.46,1.91-0.85,2.96-1.16c1.04-0.31,2.15-0.46,3.31-0.46c2.01,0,3.75,0.46,5.22,1.39
		c1.47,0.93,2.2,2.44,2.2,4.52c0,2.32-0.5,5.59-1.51,9.8c-1.01,4.22-2.34,8.74-4,13.57c-1.66,4.83-3.54,9.71-5.63,14.62
		c-2.09,4.91-4.18,9.22-6.26,12.93c-4.02,7.12-7.68,12.43-10.96,15.95c-3.29,3.52-6.52,5.28-9.69,5.28c-2.48,0-4.47-0.72-5.97-2.15
		c-1.51-1.43-2.46-3.23-2.84-5.39c1.24-1.08,2.55-2.34,3.94-3.77c1.39-1.43,2.78-2.96,4.18-4.58c1.39-1.62,2.71-3.29,3.94-4.99
		c1.24-1.7,2.32-3.36,3.25-4.99c-0.7-0.23-1.37-0.52-2.03-0.87c-0.66-0.35-1.32-0.87-1.97-1.57c-0.66-0.7-1.35-1.58-2.09-2.67
		C495.19,159.21,494.43,157.82,493.66,156.12z"/>
</g>
</svg>
