<svg id="Layer_1" data-name="Layer 1" xmlns="http://www.w3.org/2000/svg" viewBox="0 0 713.96 281.99"><defs><style>.cls-1{fill:#fff;}</style></defs><title>logo</title><path class="cls-1" d="M272.23,175.8a29,29,0,0,1-20.37,8.44c-14.64,0-32.29-7.09-32.29-25.35,0-13.28,11-22,24-22h28.37c-1.06-13-8.9-17.51-24-17.51-6.94.3-15.85,2.12-22.18,6.64V113.17c7.09-4.07,16.45-5.88,23.69-5.88,22,0,38.17,8,38.17,32.44,0,14.34.16,28.82.16,43.16H272.23ZM249.45,148c-8.45,0-15.09,3.77-15.09,10,0,10.56,10.56,14,19.16,14,7.25,0,13.73-3.16,18.71-9.05V148Z"/><path class="cls-1" d="M315.38,108.65v7.69a29.72,29.72,0,0,1,20.52-9c21.28.15,40.29,15.84,40.14,38.48.15,22.63-18.86,38.33-40.14,38.47a30.15,30.15,0,0,1-20.52-7.84c0,14.64-.15,17.49-.15,32.13H299.84V108.65Zm0,54.32A28.28,28.28,0,0,0,335.9,172c13.28,0,24.75-10.86,24.6-26.25.15-15.09-11.32-26.41-24.6-26.26-7.24-.15-15.09,3.62-20.52,10.56Z"/><path class="cls-1" d="M400.24,108.65v7.69a29.72,29.72,0,0,1,20.52-9c21.28.15,40.29,15.84,40.14,38.48.15,22.63-18.86,38.33-40.14,38.47a30.15,30.15,0,0,1-20.52-7.84c0,14.64-.15,17.49-.15,32.13H384.7V108.65Zm0,54.32A28.28,28.28,0,0,0,420.76,172c13.28,0,24.75-10.86,24.6-26.25.15-15.09-11.32-26.41-24.6-26.26-7.24-.15-15.09,3.62-20.52,10.56Z"/><path class="cls-1" d="M467.55,161c7.85,6.94,19.62,10.41,29.43,10.41,6.64,0,15.09-2.72,15.09-10.56,0-4.68-5.13-6.94-11.77-8.61-13.58-3.62-33.2-5.58-33.2-23.84,0-14.93,15.84-21.12,29.57-21.12,9.51,0,19.93,3,27.62,8.9v14.18c-7.39-6.63-18.41-10.25-27.76-10.25-6.64,0-14.79,2.71-14.79,10.11,0,3.62,4.68,6.18,10.56,8,13.88,4.53,36.06,6.65,36.06,24.45,0,15.84-17.35,21.57-31.38,21.57-10,0-21.28-3-29.43-9.05Z"/><path class="cls-1" d="M569.35,107.8a31.26,31.26,0,0,0-16,8.24v-7.38H537.8v74.2h15.52V129.79a26.88,26.88,0,0,1,16-9.72Z"/><path class="cls-1" d="M612.09,161.91l21.12-53.26h16.6l-27.16,68.2-2.41,6.49c-4.53,12.22-9.61,22.44-27.27,22.13a38.67,38.67,0,0,1-6.63-.6V191.29a51.89,51.89,0,0,0,6.18.45c9.06,0,9.91-2.51,11.87-10.51l-30-72.58h16.75Z"/><path class="cls-1" d="M87.75,208.8h-.37A18.63,18.63,0,0,1,72,201.59h0A24,24,0,0,1,67.17,188a18.9,18.9,0,0,1,.63-6c0-.06,0-.12,0-.18s0,0,0,0c1.62-6.57,2.89-7.33,6.21-17.74.11-.36.23-.71.34-1.07,4.36-13.9,7.46-28.5,2.38-37.14l16.31,14.5c6.31,6.35,8.34,13.3,6.17,20.81l-4,19.16-2.11,8.94c-1.36,8.64.55,16,55.41-10.37-2.27,1.85-40.59,23.24-43.44,24.79,0,0,0,0,0,0C99.65,206.63,93.48,208.72,87.75,208.8Z"/><path class="cls-1" d="M160.06,171v0c.36-.39,8.93-10.09-.32-20.66-1.82-2.09-3.9-4.22-6.16-6.36-16.41-15.51-43-31.48-62.35-37.86-15-5-25.72-4.13-23.81,7.29C57.59,96,70.4,73.9,99.84,82.63c20.17,6,43.86,21.49,60.51,34.4l.05,0h0A201.93,201.93,0,0,1,177,131.18c.32.31.63.6.91.9a18.71,18.71,0,0,1,4.71,7.31l.13.35a12.09,12.09,0,0,1,.45,2c0,.32.08.66.11,1s.06.82.06,1.21v.12c0,.41,0,.82-.07,1.22s-.07.67-.12,1a17.72,17.72,0,0,1-.46,2c0,.12-.09.25-.13.36a19,19,0,0,1-4.77,7.27c-1.8,1.78-4.21,4-7.11,6.46l-.6.51q-4.19,3.47-8.7,7c-.37.28-.74.56-1.09.85A1.06,1.06,0,0,0,160.06,171Z"/></svg>