<?xml version="1.0" encoding="utf-8"?>
<!-- Generator: Adobe Illustrator 24.1.2, SVG Export Plug-In . SVG Version: 6.00 Build 0)  -->
<svg version="1.1" id="Layer_1" xmlns="http://www.w3.org/2000/svg" xmlns:xlink="http://www.w3.org/1999/xlink" x="0px" y="0px"
	 viewBox="0 0 713.96 281.99" style="enable-background:new 0 0 713.96 281.99;" xml:space="preserve">
<style type="text/css">
	.st0{display:none;fill:#2D3958;}
	.st1{fill:#E20A4D;}
	.st2{fill:#2D3958;}
	.st3{font-family:'Montserrat-Medium';}
	.st4{font-size:129px;}
	.st5{letter-spacing:-1;}
</style>
<path class="st0" d="M272.23,175.8c-5.41,5.39-12.73,8.42-20.37,8.44c-14.64,0-32.29-7.09-32.29-25.35c0-13.28,11-22,24-22h28.37
	c-1.06-13-8.9-17.51-24-17.51c-6.94,0.3-15.85,2.12-22.18,6.64v-12.85c7.09-4.07,16.45-5.88,23.69-5.88c22,0,38.17,8,38.17,32.44
	c0,14.34,0.16,28.82,0.16,43.16h-15.55V175.8z M249.45,148c-8.45,0-15.09,3.77-15.09,10c0,10.56,10.56,14,19.16,14
	c7.25,0,13.73-3.16,18.71-9.05V148H249.45z"/>
<path class="st0" d="M315.38,108.65v7.69c5.4-5.56,12.77-8.79,20.52-9c21.28,0.15,40.29,15.84,40.14,38.48
	c0.15,22.63-18.86,38.33-40.14,38.47c-7.58,0.06-14.91-2.74-20.52-7.84c0,14.64-0.15,17.49-0.15,32.13h-15.39v-99.93H315.38z
	 M315.38,162.97c5.3,5.71,12.73,8.98,20.52,9.03c13.28,0,24.75-10.86,24.6-26.25c0.15-15.09-11.32-26.41-24.6-26.26
	c-7.24-0.15-15.09,3.62-20.52,10.56V162.97z"/>
<path class="st0" d="M400.24,108.65v7.69c5.4-5.56,12.77-8.79,20.52-9c21.28,0.15,40.29,15.84,40.14,38.48
	c0.15,22.63-18.86,38.33-40.14,38.47c-7.58,0.06-14.91-2.74-20.52-7.84c0,14.64-0.15,17.49-0.15,32.13H384.7v-99.93H400.24z
	 M400.24,162.97c5.3,5.71,12.73,8.98,20.52,9.03c13.28,0,24.75-10.86,24.6-26.25c0.15-15.09-11.32-26.41-24.6-26.26
	c-7.24-0.15-15.09,3.62-20.52,10.56L400.24,162.97z"/>
<path class="st0" d="M467.55,161c7.85,6.94,19.62,10.41,29.43,10.41c6.64,0,15.09-2.72,15.09-10.56c0-4.68-5.13-6.94-11.77-8.61
	c-13.58-3.62-33.2-5.58-33.2-23.84c0-14.93,15.84-21.12,29.57-21.12c9.51,0,19.93,3,27.62,8.9v14.18
	c-7.39-6.63-18.41-10.25-27.76-10.25c-6.64,0-14.79,2.71-14.79,10.11c0,3.62,4.68,6.18,10.56,8c13.88,4.53,36.06,6.65,36.06,24.45
	c0,15.84-17.35,21.57-31.38,21.57c-10,0-21.28-3-29.43-9.05L467.55,161z"/>
<path class="st0" d="M569.35,107.8c-6.03,1.12-11.59,3.98-16,8.24v-7.38H537.8v74.2h15.52v-53.07c4-5.05,9.67-8.5,16-9.72
	L569.35,107.8z"/>
<path class="st0" d="M612.09,161.91l21.12-53.26h16.6l-27.16,68.2l-2.41,6.49c-4.53,12.22-9.61,22.44-27.27,22.13
	c-2.22-0.01-4.44-0.21-6.63-0.6v-13.58c2.05,0.27,4.11,0.42,6.18,0.45c9.06,0,9.91-2.51,11.87-10.51l-30-72.58h16.75L612.09,161.91z
	"/>
<path class="st1" d="M87.75,208.8h-0.37c-5.99,0.21-11.71-2.47-15.38-7.21l0,0c-2.97-3.93-4.65-8.67-4.83-13.59
	c-0.11-2.02,0.1-4.05,0.63-6c0-0.06,0-0.12,0-0.18s0,0,0,0c1.62-6.57,2.89-7.33,6.21-17.74c0.11-0.36,0.23-0.71,0.34-1.07
	c4.36-13.9,7.46-28.5,2.38-37.14l16.31,14.5c6.31,6.35,8.34,13.3,6.17,20.81l-4,19.16l-2.11,8.94c-1.36,8.64,0.55,16,55.41-10.37
	c-2.27,1.85-40.59,23.24-43.44,24.79l0,0C99.65,206.63,93.48,208.72,87.75,208.8z"/>
<path class="st1" d="M160.06,171L160.06,171c0.36-0.39,8.93-10.09-0.32-20.66c-1.82-2.09-3.9-4.22-6.16-6.36
	c-16.41-15.51-43-31.48-62.35-37.86c-15-5-25.72-4.13-23.81,7.29C57.59,96,70.4,73.9,99.84,82.63c20.17,6,43.86,21.49,60.51,34.4
	h0.05l0,0c5.78,4.41,11.33,9.14,16.6,14.15c0.32,0.31,0.63,0.6,0.91,0.9c2.12,2.03,3.74,4.54,4.71,7.31l0.13,0.35
	c0.21,0.65,0.36,1.32,0.45,2c0,0.32,0.08,0.66,0.11,1s0.06,0.82,0.06,1.21v0.12c0,0.41,0,0.82-0.07,1.22s-0.07,0.67-0.12,1
	c-0.11,0.67-0.27,1.34-0.46,2c0,0.12-0.09,0.25-0.13,0.36c-1.01,2.76-2.64,5.25-4.77,7.27c-1.8,1.78-4.21,4-7.11,6.46l-0.6,0.51
	c-2.79,2.31-5.69,4.65-8.7,7c-0.37,0.28-0.74,0.56-1.09,0.85C160.22,170.81,160.13,170.9,160.06,171z"/>
<text transform="matrix(1 0 0 1 214.5701 178.2583)" class="st2 st3 st4 st5">appsry</text>
</svg>
